u2194_ 10 - 40.ufo
<glyph name="dollar" format="1">
  <advance width="781"/>
  <unicode hex="0024"/>
  <outline>
    <contour>
      <point x="290" y="439" type="line"/>
      <point x="283" y="439" type="line"/>
      <point x="276" y="439" type="line"/>
      <point x="270" y="439" type="line"/>
      <point x="263" y="439" type="line"/>
      <point x="256" y="439" type="line"/>
      <point x="249" y="440" type="line"/>
      <point x="242" y="440" type="line"/>
      <point x="235" y="441" type="line"/>
      <point x="228" y="442" type="line"/>
      <point x="221" y="443" type="line"/>
      <point x="215" y="444" type="line"/>
      <point x="208" y="446" type="line"/>
      <point x="202" y="448" type="line"/>
      <point x="196" y="450" type="line"/>
      <point x="191" y="453" type="line"/>
      <point x="185" y="455" type="line"/>
      <point x="180" y="459" type="line"/>
      <point x="175" y="462" type="line"/>
      <point x="170" y="466" type="line"/>
      <point x="166" y="470" type="line"/>
      <point x="163" y="474" type="line"/>
      <point x="157" y="480" type="line"/>
      <point x="153" y="486" type="line"/>
      <point x="150" y="493" type="line"/>
      <point x="146" y="501" type="line"/>
      <point x="143" y="509" type="line"/>
      <point x="140" y="518" type="line"/>
      <point x="137" y="529" type="line"/>
      <point x="134" y="540" type="line"/>
      <point x="133" y="553" type="line"/>
      <point x="131" y="567" type="line"/>
      <point x="130" y="582" type="line"/>
      <point x="130" y="598" type="line"/>
      <point x="130" y="606" type="line"/>
      <point x="130" y="612" type="line"/>
      <point x="130" y="619" type="line"/>
      <point x="130" y="626" type="line"/>
      <point x="130" y="633" type="line"/>
      <point x="131" y="640" type="line"/>
      <point x="131" y="647" type="line"/>
      <point x="132" y="654" type="line"/>
      <point x="133" y="661" type="line"/>
      <point x="134" y="667" type="line"/>
      <point x="135" y="674" type="line"/>
      <point x="137" y="680" type="line"/>
      <point x="139" y="686" type="line"/>
      <point x="141" y="692" type="line"/>
      <point x="144" y="698" type="line"/>
      <point x="147" y="704" type="line"/>
      <point x="150" y="709" type="line"/>
      <point x="153" y="714" type="line"/>
      <point x="157" y="718" type="line"/>
      <point x="161" y="723" type="line"/>
      <point x="165" y="726" type="line"/>
      <point x="172" y="732" type="line"/>
      <point x="178" y="736" type="line"/>
      <point x="184" y="739" type="line"/>
      <point x="192" y="743" type="line"/>
      <point x="200" y="746" type="line"/>
      <point x="209" y="749" type="line"/>
      <point x="220" y="752" type="line"/>
      <point x="231" y="754" type="line"/>
      <point x="244" y="756" type="line"/>
      <point x="258" y="758" type="line"/>
      <point x="273" y="759" type="line"/>
      <point x="289" y="759" type="line"/>
      <point x="351" y="759" type="line"/>
      <point x="351" y="439" type="line"/>
    </contour>
    <contour>
      <point x="491" y="359" type="line"/>
      <point x="498" y="359" type="line"/>
      <point x="504" y="359" type="line"/>
      <point x="511" y="359" type="line"/>
      <point x="518" y="359" type="line"/>
      <point x="525" y="359" type="line"/>
      <point x="531" y="358" type="line"/>
      <point x="538" y="358" type="line"/>
      <point x="545" y="357" type="line"/>
      <point x="552" y="356" type="line"/>
      <point x="558" y="355" type="line"/>
      <point x="565" y="354" type="line"/>
      <point x="571" y="352" type="line"/>
      <point x="577" y="351" type="line"/>
      <point x="583" y="349" type="line"/>
      <point x="588" y="346" type="line"/>
      <point x="594" y="344" type="line"/>
      <point x="599" y="341" type="line"/>
      <point x="604" y="338" type="line"/>
      <point x="609" y="334" type="line"/>
      <point x="613" y="330" type="line"/>
      <point x="619" y="324" type="line"/>
      <point x="622" y="320" type="line"/>
      <point x="626" y="314" type="line"/>
      <point x="630" y="307" type="line"/>
      <point x="634" y="300" type="line"/>
      <point x="637" y="291" type="line"/>
      <point x="641" y="282" type="line"/>
      <point x="644" y="271" type="line"/>
      <point x="646" y="260" type="line"/>
      <point x="648" y="247" type="line"/>
      <point x="650" y="233" type="line"/>
      <point x="651" y="218" type="line"/>
      <point x="651" y="201" type="line"/>
      <point x="651" y="195" type="line"/>
      <point x="651" y="188" type="line"/>
      <point x="651" y="181" type="line"/>
      <point x="651" y="175" type="line"/>
      <point x="651" y="168" type="line"/>
      <point x="650" y="161" type="line"/>
      <point x="650" y="154" type="line"/>
      <point x="649" y="147" type="line"/>
      <point x="648" y="141" type="line"/>
      <point x="647" y="134" type="line"/>
      <point x="646" y="128" type="line"/>
      <point x="644" y="121" type="line"/>
      <point x="642" y="115" type="line"/>
      <point x="640" y="109" type="line"/>
      <point x="638" y="103" type="line"/>
      <point x="635" y="98" type="line"/>
      <point x="632" y="93" type="line"/>
      <point x="628" y="87" type="line"/>
      <point x="625" y="83" type="line"/>
      <point x="620" y="78" type="line"/>
      <point x="614" y="72" type="line"/>
      <point x="610" y="69" type="line"/>
      <point x="604" y="64" type="line"/>
      <point x="598" y="60" type="line"/>
      <point x="590" y="56" type="line"/>
      <point x="581" y="53" type="line"/>
      <point x="572" y="49" type="line"/>
      <point x="561" y="47" type="line"/>
      <point x="550" y="44" type="line"/>
      <point x="537" y="42" type="line"/>
      <point x="523" y="40" type="line"/>
      <point x="508" y="39" type="line"/>
      <point x="491" y="39" type="line"/>
      <point x="431" y="39" type="line"/>
      <point x="431" y="359" type="line"/>
    </contour>
    <contour>
      <point x="290" y="-41" type="line" smooth="yes"/>
      <point x="491" y="-41" type="line"/>
      <point x="510" y="-41" type="line"/>
      <point x="528" y="-40" type="line"/>
      <point x="546" y="-38" type="line"/>
      <point x="562" y="-35" type="line"/>
      <point x="578" y="-32" type="line"/>
      <point x="593" y="-28" type="line"/>
      <point x="607" y="-23" type="line"/>
      <point x="621" y="-17" type="line"/>
      <point x="633" y="-11" type="line"/>
      <point x="645" y="-5" type="line"/>
      <point x="656" y="3" type="line"/>
      <point x="666" y="11" type="line" smooth="yes"/>
      <point x="667" y="11"/>
      <point x="668" y="12"/>
      <point x="668" y="13" type="curve" smooth="yes"/>
      <point x="675" y="19" type="line"/>
      <point x="684" y="28" type="line"/>
      <point x="691" y="38" type="line"/>
      <point x="698" y="47" type="line"/>
      <point x="704" y="57" type="line"/>
      <point x="709" y="67" type="line"/>
      <point x="713" y="77" type="line"/>
      <point x="717" y="87" type="line"/>
      <point x="720" y="97" type="line"/>
      <point x="723" y="107" type="line"/>
      <point x="725" y="117" type="line"/>
      <point x="727" y="127" type="line"/>
      <point x="728" y="136" type="line"/>
      <point x="729" y="146" type="line"/>
      <point x="730" y="155" type="line"/>
      <point x="730" y="163" type="line"/>
      <point x="731" y="172" type="line"/>
      <point x="731" y="180" type="line"/>
      <point x="731" y="187" type="line"/>
      <point x="731" y="194" type="line"/>
      <point x="731" y="201" type="line"/>
      <point x="731" y="220" type="line"/>
      <point x="730" y="238" type="line"/>
      <point x="728" y="256" type="line"/>
      <point x="725" y="272" type="line"/>
      <point x="722" y="288" type="line"/>
      <point x="718" y="303" type="line"/>
      <point x="713" y="317" type="line"/>
      <point x="708" y="330" type="line"/>
      <point x="702" y="343" type="line"/>
      <point x="695" y="354" type="line"/>
      <point x="688" y="365" type="line"/>
      <point x="680" y="375" type="line" smooth="yes"/>
      <point x="680" y="376"/>
      <point x="679" y="377"/>
      <point x="678" y="377" type="curve" smooth="yes"/>
      <point x="672" y="384" type="line"/>
      <point x="663" y="393" type="line"/>
      <point x="653" y="400" type="line"/>
      <point x="644" y="407" type="line"/>
      <point x="634" y="413" type="line"/>
      <point x="624" y="418" type="line"/>
      <point x="614" y="422" type="line"/>
      <point x="604" y="426" type="line"/>
      <point x="594" y="429" type="line"/>
      <point x="584" y="432" type="line"/>
      <point x="574" y="434" type="line"/>
      <point x="565" y="435" type="line"/>
      <point x="555" y="437" type="line"/>
      <point x="546" y="437" type="line"/>
      <point x="537" y="438" type="line"/>
      <point x="529" y="439" type="line"/>
      <point x="520" y="439" type="line"/>
      <point x="512" y="439" type="line"/>
      <point x="505" y="439" type="line"/>
      <point x="498" y="439" type="line"/>
      <point x="491" y="439" type="line"/>
      <point x="431" y="439" type="line"/>
      <point x="431" y="759" type="line"/>
      <point x="489" y="759" type="line"/>
      <point x="506" y="759" type="line"/>
      <point x="521" y="758" type="line"/>
      <point x="535" y="756" type="line"/>
      <point x="548" y="754" type="line"/>
      <point x="559" y="752" type="line"/>
      <point x="570" y="749" type="line"/>
      <point x="580" y="745" type="line"/>
      <point x="588" y="742" type="line"/>
      <point x="596" y="738" type="line"/>
      <point x="603" y="734" type="line"/>
      <point x="607" y="731" type="line"/>
      <point x="614" y="725" type="line"/>
      <point x="619" y="721" type="line"/>
      <point x="623" y="716" type="line"/>
      <point x="627" y="711" type="line"/>
      <point x="631" y="706" type="line"/>
      <point x="634" y="701" type="line"/>
      <point x="637" y="695" type="line"/>
      <point x="639" y="690" type="line"/>
      <point x="641" y="684" type="line"/>
      <point x="643" y="678" type="line"/>
      <point x="645" y="672" type="line"/>
      <point x="646" y="665" type="line"/>
      <point x="648" y="659" type="line"/>
      <point x="649" y="652" type="line"/>
      <point x="649" y="645" type="line"/>
      <point x="650" y="639" type="line"/>
      <point x="650" y="632" type="line"/>
      <point x="651" y="625" type="line"/>
      <point x="651" y="619" type="line"/>
      <point x="651" y="612" type="line"/>
      <point x="651" y="605" type="line"/>
      <point x="651" y="599" type="line" smooth="yes"/>
      <point x="651" y="577"/>
      <point x="669" y="559"/>
      <point x="691" y="559" type="curve" smooth="yes"/>
      <point x="713" y="559"/>
      <point x="731" y="577"/>
      <point x="731" y="599" type="curve" smooth="yes"/>
      <point x="731" y="606" type="line"/>
      <point x="731" y="613" type="line"/>
      <point x="731" y="621" type="line"/>
      <point x="731" y="629" type="line"/>
      <point x="730" y="637" type="line"/>
      <point x="730" y="646" type="line"/>
      <point x="729" y="655" type="line"/>
      <point x="728" y="664" type="line"/>
      <point x="726" y="674" type="line"/>
      <point x="724" y="683" type="line"/>
      <point x="722" y="693" type="line"/>
      <point x="719" y="703" type="line"/>
      <point x="716" y="713" type="line"/>
      <point x="712" y="723" type="line"/>
      <point x="707" y="733" type="line"/>
      <point x="702" y="743" type="line"/>
      <point x="696" y="753" type="line"/>
      <point x="689" y="762" type="line"/>
      <point x="681" y="771" type="line"/>
      <point x="673" y="780" type="line"/>
      <point x="664" y="788" type="line"/>
      <point x="656" y="794" type="line" smooth="yes"/>
      <point x="655" y="795"/>
      <point x="654" y="796"/>
      <point x="653" y="796" type="curve" smooth="yes"/>
      <point x="643" y="803" type="line"/>
      <point x="631" y="810" type="line"/>
      <point x="618" y="816" type="line"/>
      <point x="605" y="821" type="line"/>
      <point x="591" y="826" type="line"/>
      <point x="576" y="830" type="line"/>
      <point x="560" y="833" type="line"/>
      <point x="543" y="836" type="line"/>
      <point x="526" y="838" type="line"/>
      <point x="508" y="839" type="line"/>
      <point x="490" y="839" type="line" smooth="yes"/>
      <point x="490" y="839"/>
      <point x="489" y="839"/>
      <point x="489" y="839" type="curve" smooth="yes"/>
      <point x="391" y="839" type="line"/>
      <point x="391" y="839" type="line" smooth="yes"/>
      <point x="391" y="839" type="line"/>
      <point x="287" y="839" type="line"/>
      <point x="268" y="839" type="line"/>
      <point x="249" y="837" type="line"/>
      <point x="231" y="835" type="line"/>
      <point x="215" y="833" type="line"/>
      <point x="199" y="829" type="line"/>
      <point x="184" y="825" type="line"/>
      <point x="170" y="820" type="line"/>
      <point x="156" y="815" type="line"/>
      <point x="144" y="808" type="line"/>
      <point x="132" y="801" type="line"/>
      <point x="121" y="794" type="line"/>
      <point x="114" y="788" type="line" smooth="yes"/>
      <point x="113" y="787"/>
      <point x="112" y="786"/>
      <point x="111" y="786" type="curve" smooth="yes"/>
      <point x="102" y="777" type="line"/>
      <point x="94" y="768" type="line"/>
      <point x="87" y="759" type="line"/>
      <point x="81" y="749" type="line"/>
      <point x="75" y="739" type="line"/>
      <point x="70" y="730" type="line"/>
      <point x="66" y="720" type="line"/>
      <point x="62" y="710" type="line"/>
      <point x="59" y="700" type="line"/>
      <point x="57" y="690" type="line"/>
      <point x="55" y="680" type="line"/>
      <point x="54" y="671" type="line"/>
      <point x="52" y="662" type="line"/>
      <point x="51" y="653" type="line"/>
      <point x="51" y="644" type="line"/>
      <point x="50" y="636" type="line"/>
      <point x="50" y="627" type="line"/>
      <point x="50" y="620" type="line"/>
      <point x="50" y="612" type="line"/>
      <point x="50" y="605" type="line"/>
      <point x="50" y="596" type="line"/>
      <point x="50" y="577" type="line"/>
      <point x="52" y="558" type="line"/>
      <point x="54" y="540" type="line"/>
      <point x="56" y="524" type="line"/>
      <point x="60" y="508" type="line"/>
      <point x="64" y="493" type="line"/>
      <point x="69" y="479" type="line"/>
      <point x="74" y="465" type="line"/>
      <point x="80" y="453" type="line"/>
      <point x="87" y="441" type="line"/>
      <point x="95" y="430" type="line"/>
      <point x="101" y="423" type="line" smooth="yes"/>
      <point x="101" y="422"/>
      <point x="102" y="421"/>
      <point x="103" y="421" type="curve" smooth="yes"/>
      <point x="112" y="412" type="line"/>
      <point x="120" y="403" type="line"/>
      <point x="130" y="396" type="line"/>
      <point x="139" y="390" type="line"/>
      <point x="149" y="384" type="line"/>
      <point x="159" y="379" type="line"/>
      <point x="169" y="375" type="line"/>
      <point x="179" y="371" type="line"/>
      <point x="189" y="368" type="line"/>
      <point x="198" y="366" type="line"/>
      <point x="208" y="364" type="line"/>
      <point x="218" y="363" type="line"/>
      <point x="227" y="361" type="line"/>
      <point x="236" y="360" type="line"/>
      <point x="245" y="360" type="line"/>
      <point x="253" y="359" type="line"/>
      <point x="261" y="359" type="line"/>
      <point x="269" y="359" type="line"/>
      <point x="276" y="359" type="line"/>
      <point x="283" y="359" type="line"/>
      <point x="290" y="359" type="line"/>
      <point x="351" y="359" type="line"/>
      <point x="351" y="39" type="line"/>
      <point x="290" y="39" type="line"/>
      <point x="284" y="39" type="line"/>
      <point x="277" y="39" type="line"/>
      <point x="270" y="39" type="line"/>
      <point x="264" y="39" type="line"/>
      <point x="257" y="40" type="line"/>
      <point x="250" y="40" type="line"/>
      <point x="243" y="40" type="line"/>
      <point x="236" y="41" type="line"/>
      <point x="230" y="42" type="line"/>
      <point x="223" y="43" type="line"/>
      <point x="217" y="45" type="line"/>
      <point x="211" y="46" type="line"/>
      <point x="205" y="48" type="line"/>
      <point x="199" y="50" type="line"/>
      <point x="193" y="53" type="line"/>
      <point x="188" y="55" type="line"/>
      <point x="183" y="58" type="line"/>
      <point x="178" y="62" type="line"/>
      <point x="171" y="67" type="line"/>
      <point x="168" y="70" type="line"/>
      <point x="164" y="74" type="line"/>
      <point x="159" y="80" type="line"/>
      <point x="155" y="86" type="line"/>
      <point x="151" y="93" type="line"/>
      <point x="147" y="100" type="line"/>
      <point x="144" y="109" type="line"/>
      <point x="140" y="118" type="line"/>
      <point x="137" y="129" type="line"/>
      <point x="135" y="140" type="line"/>
      <point x="133" y="153" type="line"/>
      <point x="131" y="167" type="line"/>
      <point x="130" y="182" type="line"/>
      <point x="130" y="200" type="line" smooth="yes"/>
      <point x="130" y="221"/>
      <point x="111" y="239"/>
      <point x="89" y="239" type="curve" smooth="yes"/>
      <point x="68" y="239"/>
      <point x="50" y="220"/>
      <point x="50" y="198" type="curve" smooth="yes"/>
      <point x="50" y="180" type="line"/>
      <point x="51" y="162" type="line"/>
      <point x="53" y="145" type="line"/>
      <point x="56" y="128" type="line"/>
      <point x="59" y="112" type="line"/>
      <point x="63" y="97" type="line"/>
      <point x="68" y="83" type="line"/>
      <point x="73" y="70" type="line"/>
      <point x="79" y="58" type="line"/>
      <point x="86" y="46" type="line"/>
      <point x="93" y="35" type="line"/>
      <point x="101" y="25" type="line"/>
      <point x="109" y="16" type="line"/>
      <point x="118" y="7" type="line" smooth="yes"/>
      <point x="119" y="7"/>
      <point x="120" y="6"/>
      <point x="120" y="5" type="curve" smooth="yes"/>
      <point x="127" y="0" type="line"/>
      <point x="137" y="-7" type="line"/>
      <point x="147" y="-13" type="line"/>
      <point x="156" y="-18" type="line"/>
      <point x="166" y="-23" type="line"/>
      <point x="176" y="-27" type="line"/>
      <point x="186" y="-30" type="line"/>
      <point x="196" y="-33" type="line"/>
      <point x="206" y="-35" type="line"/>
      <point x="216" y="-37" type="line"/>
      <point x="225" y="-38" type="line"/>
      <point x="234" y="-39" type="line"/>
      <point x="243" y="-40" type="line"/>
      <point x="252" y="-40" type="line"/>
      <point x="260" y="-41" type="line"/>
      <point x="268" y="-41" type="line"/>
      <point x="276" y="-41" type="line"/>
      <point x="283" y="-41" type="line"/>
    </contour>
  </outline>
</glyph>
<glyph name="percent" format="1">
  <advance width="780"/>
  <unicode hex="0025"/>
  <outline>
    <contour>
      <point x="90" y="559" type="curve" smooth="yes"/>
      <point x="290" y="559" type="line" smooth="yes"/>
      <point x="312" y="559"/>
      <point x="330" y="577"/>
      <point x="330" y="599" type="curve" smooth="yes"/>
      <point x="330" y="789" type="line" smooth="yes"/>
      <point x="330" y="791"/>
      <point x="330" y="793"/>
      <point x="330" y="794" type="curve"/>
      <point x="330" y="796"/>
      <point x="330" y="798"/>
      <point x="330" y="800" type="curve" smooth="yes"/>
      <point x="330" y="821"/>
      <point x="311" y="839"/>
      <point x="289" y="839" type="curve" smooth="yes"/>
      <point x="271" y="839" type="line"/>
      <point x="253" y="838" type="line"/>
      <point x="236" y="836" type="line"/>
      <point x="219" y="833" type="line"/>
      <point x="203" y="830" type="line"/>
      <point x="188" y="826" type="line"/>
      <point x="174" y="821" type="line"/>
      <point x="161" y="816" type="line"/>
      <point x="148" y="810" type="line"/>
      <point x="137" y="803" type="line"/>
      <point x="126" y="796" type="line"/>
      <point x="116" y="788" type="line"/>
      <point x="106" y="780" type="line"/>
      <point x="98" y="771" type="line"/>
      <point x="90" y="761" type="line" smooth="yes"/>
      <point x="90" y="761"/>
      <point x="89" y="760"/>
      <point x="89" y="759" type="curve" smooth="yes"/>
      <point x="83" y="752" type="line"/>
      <point x="77" y="742" type="line"/>
      <point x="72" y="732" type="line"/>
      <point x="68" y="722" type="line"/>
      <point x="64" y="712" type="line"/>
      <point x="61" y="702" type="line"/>
      <point x="58" y="692" type="line"/>
      <point x="56" y="682" type="line"/>
      <point x="54" y="673" type="line"/>
      <point x="53" y="663" type="line"/>
      <point x="52" y="654" type="line"/>
      <point x="51" y="645" type="line"/>
      <point x="50" y="636" type="line"/>
      <point x="50" y="628" type="line"/>
      <point x="50" y="620" type="line"/>
      <point x="50" y="612" type="line"/>
      <point x="50" y="605" type="line"/>
      <point x="50" y="598" type="line" smooth="yes"/>
      <point x="50" y="577"/>
      <point x="68" y="559"/>
    </contour>
    <contour>
      <point x="122" y="-25" type="curve" smooth="yes"/>
      <point x="722" y="775" type="line" smooth="yes"/>
      <point x="735" y="792"/>
      <point x="731" y="818"/>
      <point x="714" y="831" type="curve" smooth="yes"/>
      <point x="697" y="844"/>
      <point x="671" y="840"/>
      <point x="658" y="823" type="curve" smooth="yes"/>
      <point x="58" y="23" type="line" smooth="yes"/>
      <point x="45" y="6"/>
      <point x="49" y="-20"/>
      <point x="66" y="-33" type="curve" smooth="yes"/>
      <point x="83" y="-46"/>
      <point x="109" y="-42"/>
    </contour>
    <contour>
      <point x="131" y="646" type="line"/>
      <point x="132" y="652" type="line"/>
      <point x="133" y="659" type="line"/>
      <point x="134" y="665" type="line"/>
      <point x="135" y="672" type="line"/>
      <point x="137" y="678" type="line"/>
      <point x="139" y="684" type="line"/>
      <point x="141" y="690" type="line"/>
      <point x="143" y="695" type="line"/>
      <point x="146" y="701" type="line"/>
      <point x="149" y="706" type="line"/>
      <point x="154" y="713" type="line"/>
      <point x="156" y="716" type="line"/>
      <point x="160" y="721" type="line"/>
      <point x="165" y="725" type="line"/>
      <point x="171" y="730" type="line"/>
      <point x="177" y="734" type="line"/>
      <point x="184" y="738" type="line"/>
      <point x="191" y="742" type="line"/>
      <point x="200" y="745" type="line"/>
      <point x="209" y="749" type="line"/>
      <point x="220" y="752" type="line"/>
      <point x="231" y="754" type="line"/>
      <point x="244" y="756" type="line"/>
      <point x="250" y="757" type="line"/>
      <point x="250" y="639" type="line"/>
      <point x="131" y="639" type="line"/>
    </contour>
    <contour>
      <point x="491" y="-41" type="curve" smooth="yes"/>
      <point x="509" y="-41" type="line"/>
      <point x="527" y="-40" type="line"/>
      <point x="544" y="-38" type="line"/>
      <point x="561" y="-35" type="line"/>
      <point x="577" y="-32" type="line"/>
      <point x="592" y="-28" type="line"/>
      <point x="606" y="-23" type="line"/>
      <point x="619" y="-18" type="line"/>
      <point x="632" y="-12" type="line"/>
      <point x="643" y="-5" type="line"/>
      <point x="654" y="2" type="line"/>
      <point x="664" y="10" type="line"/>
      <point x="674" y="18" type="line"/>
      <point x="682" y="27" type="line"/>
      <point x="690" y="37" type="line" smooth="yes"/>
      <point x="690" y="37"/>
      <point x="691" y="38"/>
      <point x="691" y="39" type="curve" smooth="yes"/>
      <point x="697" y="46" type="line"/>
      <point x="703" y="56" type="line"/>
      <point x="708" y="66" type="line"/>
      <point x="712" y="76" type="line"/>
      <point x="716" y="86" type="line"/>
      <point x="719" y="96" type="line"/>
      <point x="722" y="106" type="line"/>
      <point x="724" y="116" type="line"/>
      <point x="726" y="125" type="line"/>
      <point x="727" y="135" type="line"/>
      <point x="728" y="144" type="line"/>
      <point x="729" y="153" type="line"/>
      <point x="730" y="162" type="line"/>
      <point x="730" y="170" type="line"/>
      <point x="730" y="178" type="line"/>
      <point x="730" y="186" type="line"/>
      <point x="730" y="193" type="line"/>
      <point x="730" y="200" type="line" smooth="yes"/>
      <point x="730" y="221"/>
      <point x="712" y="239"/>
      <point x="690" y="239" type="curve" smooth="yes"/>
      <point x="490" y="239" type="line" smooth="yes"/>
      <point x="468" y="239"/>
      <point x="450" y="221"/>
      <point x="450" y="199" type="curve" smooth="yes"/>
      <point x="450" y="9" type="line" smooth="yes"/>
      <point x="450" y="7"/>
      <point x="450" y="5"/>
      <point x="450" y="4" type="curve"/>
      <point x="450" y="2"/>
      <point x="450" y="0"/>
      <point x="450" y="-2" type="curve" smooth="yes"/>
      <point x="450" y="-23"/>
      <point x="469" y="-41"/>
    </contour>
    <contour>
      <point x="536" y="42" type="line"/>
      <point x="530" y="41" type="line"/>
      <point x="530" y="159" type="line"/>
      <point x="649" y="159" type="line"/>
      <point x="649" y="152" type="line"/>
      <point x="648" y="146" type="line"/>
      <point x="647" y="139" type="line"/>
      <point x="646" y="133" type="line"/>
      <point x="645" y="126" type="line"/>
      <point x="643" y="120" type="line"/>
      <point x="641" y="114" type="line"/>
      <point x="639" y="108" type="line"/>
      <point x="637" y="103" type="line"/>
      <point x="634" y="97" type="line"/>
      <point x="631" y="92" type="line"/>
      <point x="626" y="85" type="line"/>
      <point x="624" y="82" type="line"/>
      <point x="620" y="77" type="line"/>
      <point x="615" y="73" type="line"/>
      <point x="609" y="68" type="line"/>
      <point x="603" y="64" type="line"/>
      <point x="596" y="60" type="line"/>
      <point x="589" y="56" type="line"/>
      <point x="580" y="53" type="line"/>
      <point x="571" y="49" type="line"/>
      <point x="560" y="46" type="line"/>
      <point x="549" y="44" type="line"/>
    </contour>
  </outline>
</glyph>
<glyph name="ampersand" format="1">
  <advance width="780"/>
  <unicode hex="0026"/>
  <outline>
    <contour>
      <point x="329" y="599" type="line"/>
      <point x="329" y="616" type="line"/>
      <point x="330" y="631" type="line"/>
      <point x="332" y="645" type="line"/>
      <point x="334" y="658" type="line"/>
      <point x="336" y="669" type="line"/>
      <point x="339" y="680" type="line"/>
      <point x="343" y="690" type="line"/>
      <point x="346" y="698" type="line"/>
      <point x="350" y="706" type="line"/>
      <point x="354" y="713" type="line"/>
      <point x="357" y="717" type="line"/>
      <point x="363" y="724" type="line"/>
      <point x="367" y="729" type="line"/>
      <point x="372" y="733" type="line"/>
      <point x="377" y="737" type="line"/>
      <point x="382" y="741" type="line"/>
      <point x="387" y="744" type="line"/>
      <point x="393" y="747" type="line"/>
      <point x="398" y="749" type="line"/>
      <point x="404" y="751" type="line"/>
      <point x="410" y="753" type="line"/>
      <point x="416" y="755" type="line"/>
      <point x="423" y="756" type="line"/>
      <point x="429" y="758" type="line"/>
      <point x="436" y="759" type="line"/>
      <point x="443" y="759" type="line"/>
      <point x="449" y="760" type="line"/>
      <point x="456" y="760" type="line"/>
      <point x="463" y="761" type="line"/>
      <point x="469" y="761" type="line"/>
      <point x="476" y="761" type="line"/>
      <point x="483" y="761" type="line"/>
      <point x="550" y="761" type="line"/>
      <point x="550" y="603" type="line"/>
      <point x="550" y="586" type="line"/>
      <point x="549" y="571" type="line"/>
      <point x="547" y="557" type="line"/>
      <point x="545" y="544" type="line"/>
      <point x="543" y="533" type="line"/>
      <point x="540" y="522" type="line"/>
      <point x="536" y="512" type="line"/>
      <point x="533" y="504" type="line"/>
      <point x="529" y="496" type="line"/>
      <point x="525" y="489" type="line"/>
      <point x="522" y="485" type="line"/>
      <point x="516" y="478" type="line"/>
      <point x="512" y="473" type="line"/>
      <point x="507" y="469" type="line"/>
      <point x="502" y="465" type="line"/>
      <point x="497" y="461" type="line"/>
      <point x="492" y="458" type="line"/>
      <point x="486" y="455" type="line"/>
      <point x="481" y="453" type="line"/>
      <point x="475" y="451" type="line"/>
      <point x="469" y="449" type="line"/>
      <point x="463" y="447" type="line"/>
      <point x="456" y="446" type="line"/>
      <point x="450" y="444" type="line"/>
      <point x="443" y="443" type="line"/>
      <point x="436" y="443" type="line"/>
      <point x="430" y="442" type="line"/>
      <point x="423" y="442" type="line"/>
      <point x="416" y="441" type="line"/>
      <point x="410" y="441" type="line"/>
      <point x="403" y="441" type="line"/>
      <point x="396" y="441" type="line"/>
      <point x="329" y="441" type="line"/>
    </contour>
    <contour>
      <point x="262" y="42" type="line"/>
      <point x="248" y="44" type="line"/>
      <point x="235" y="45" type="line"/>
      <point x="224" y="48" type="line"/>
      <point x="213" y="50" type="line"/>
      <point x="204" y="53" type="line"/>
      <point x="195" y="57" type="line"/>
      <point x="187" y="60" type="line"/>
      <point x="180" y="64" type="line"/>
      <point x="174" y="68" type="line"/>
      <point x="169" y="72" type="line"/>
      <point x="164" y="76" type="line"/>
      <point x="158" y="82" type="line"/>
      <point x="155" y="86" type="line"/>
      <point x="152" y="91" type="line"/>
      <point x="148" y="96" type="line"/>
      <point x="145" y="101" type="line"/>
      <point x="143" y="107" type="line"/>
      <point x="140" y="112" type="line"/>
      <point x="138" y="118" type="line"/>
      <point x="136" y="125" type="line"/>
      <point x="135" y="131" type="line"/>
      <point x="134" y="138" type="line"/>
      <point x="133" y="144" type="line"/>
      <point x="132" y="151" type="line"/>
      <point x="131" y="158" type="line"/>
      <point x="131" y="165" type="line"/>
      <point x="130" y="172" type="line"/>
      <point x="130" y="179" type="line"/>
      <point x="130" y="186" type="line"/>
      <point x="130" y="192" type="line"/>
      <point x="130" y="198" type="line"/>
      <point x="130" y="214" type="line"/>
      <point x="131" y="229" type="line"/>
      <point x="133" y="243" type="line"/>
      <point x="134" y="256" type="line"/>
      <point x="137" y="267" type="line"/>
      <point x="140" y="278" type="line"/>
      <point x="143" y="287" type="line"/>
      <point x="146" y="296" type="line"/>
      <point x="150" y="303" type="line"/>
      <point x="154" y="310" type="line"/>
      <point x="159" y="318" type="line"/>
      <point x="162" y="322" type="line"/>
      <point x="166" y="327" type="line"/>
      <point x="171" y="332" type="line"/>
      <point x="176" y="336" type="line"/>
      <point x="181" y="339" type="line"/>
      <point x="186" y="343" type="line"/>
      <point x="191" y="346" type="line"/>
      <point x="197" y="348" type="line"/>
      <point x="203" y="351" type="line"/>
      <point x="209" y="353" type="line"/>
      <point x="216" y="355" type="line"/>
      <point x="222" y="356" type="line"/>
      <point x="229" y="357" type="line"/>
      <point x="236" y="358" type="line"/>
      <point x="242" y="359" type="line"/>
      <point x="249" y="360" type="line"/>
      <point x="256" y="360" type="line"/>
      <point x="263" y="361" type="line"/>
      <point x="270" y="361" type="line"/>
      <point x="277" y="361" type="line"/>
      <point x="283" y="361" type="line"/>
      <point x="370" y="361" type="line"/>
      <point x="466" y="233" type="line"/>
      <point x="276" y="41" type="line"/>
    </contour>
    <contour>
      <point x="320" y="-27" type="curve" smooth="yes"/>
      <point x="515" y="168" type="line"/>
      <point x="658" y="-23" type="line" smooth="yes"/>
      <point x="671" y="-40"/>
      <point x="697" y="-44"/>
      <point x="714" y="-31" type="curve" smooth="yes"/>
      <point x="731" y="-18"/>
      <point x="735" y="8"/>
      <point x="722" y="25" type="curve" smooth="yes"/>
      <point x="572" y="225" type="line"/>
      <point x="710" y="365" type="line"/>
      <point x="717" y="372" type="line" smooth="yes"/>
      <point x="733" y="387"/>
      <point x="733" y="413"/>
      <point x="717" y="428" type="curve" smooth="yes"/>
      <point x="702" y="444"/>
      <point x="676" y="444"/>
      <point x="661" y="428" type="curve" smooth="yes"/>
      <point x="523" y="290" type="line"/>
      <point x="466" y="366" type="line"/>
      <point x="474" y="368" type="line"/>
      <point x="484" y="370" type="line"/>
      <point x="494" y="373" type="line"/>
      <point x="504" y="376" type="line"/>
      <point x="514" y="380" type="line"/>
      <point x="524" y="385" type="line"/>
      <point x="534" y="390" type="line"/>
      <point x="544" y="396" type="line"/>
      <point x="553" y="403" type="line"/>
      <point x="562" y="411" type="line"/>
      <point x="571" y="419" type="line"/>
      <point x="579" y="428" type="line"/>
      <point x="585" y="436" type="line" smooth="yes"/>
      <point x="586" y="437"/>
      <point x="587" y="438"/>
      <point x="587" y="439" type="curve" smooth="yes"/>
      <point x="594" y="449" type="line"/>
      <point x="601" y="461" type="line"/>
      <point x="607" y="474" type="line"/>
      <point x="612" y="487" type="line"/>
      <point x="617" y="501" type="line"/>
      <point x="621" y="516" type="line"/>
      <point x="624" y="532" type="line"/>
      <point x="627" y="549" type="line"/>
      <point x="629" y="566" type="line"/>
      <point x="630" y="584" type="line"/>
      <point x="630" y="603" type="line"/>
      <point x="630" y="801" type="line" smooth="yes"/>
      <point x="630" y="823"/>
      <point x="612" y="841"/>
      <point x="590" y="841" type="curve" smooth="yes"/>
      <point x="482" y="841" type="line"/>
      <point x="475" y="841" type="line"/>
      <point x="467" y="841" type="line"/>
      <point x="459" y="841" type="line"/>
      <point x="451" y="840" type="line"/>
      <point x="442" y="840" type="line"/>
      <point x="433" y="839" type="line"/>
      <point x="424" y="838" type="line"/>
      <point x="414" y="836" type="line"/>
      <point x="405" y="834" type="line"/>
      <point x="395" y="832" type="line"/>
      <point x="385" y="829" type="line"/>
      <point x="375" y="826" type="line"/>
      <point x="365" y="822" type="line"/>
      <point x="355" y="817" type="line"/>
      <point x="345" y="812" type="line"/>
      <point x="335" y="806" type="line"/>
      <point x="326" y="799" type="line"/>
      <point x="317" y="791" type="line"/>
      <point x="308" y="783" type="line"/>
      <point x="300" y="774" type="line"/>
      <point x="294" y="766" type="line" smooth="yes"/>
      <point x="293" y="765"/>
      <point x="292" y="764"/>
      <point x="292" y="763" type="curve" smooth="yes"/>
      <point x="285" y="753" type="line"/>
      <point x="278" y="741" type="line"/>
      <point x="272" y="728" type="line"/>
      <point x="267" y="715" type="line"/>
      <point x="262" y="701" type="line"/>
      <point x="258" y="686" type="line"/>
      <point x="255" y="670" type="line"/>
      <point x="252" y="653" type="line"/>
      <point x="250" y="636" type="line"/>
      <point x="249" y="618" type="line"/>
      <point x="249" y="599" type="line"/>
      <point x="249" y="440" type="line"/>
      <point x="244" y="440" type="line"/>
      <point x="235" y="439" type="line"/>
      <point x="226" y="438" type="line"/>
      <point x="217" y="436" type="line"/>
      <point x="207" y="435" type="line"/>
      <point x="198" y="433" type="line"/>
      <point x="188" y="430" type="line"/>
      <point x="178" y="427" type="line"/>
      <point x="168" y="423" type="line"/>
      <point x="158" y="418" type="line"/>
      <point x="148" y="413" type="line"/>
      <point x="139" y="407" type="line"/>
      <point x="129" y="401" type="line"/>
      <point x="120" y="393" type="line"/>
      <point x="111" y="385" type="line"/>
      <point x="103" y="376" type="line"/>
      <point x="95" y="366" type="line" smooth="yes"/>
      <point x="94" y="365"/>
      <point x="93" y="364"/>
      <point x="93" y="363" type="curve" smooth="yes"/>
      <point x="87" y="355" type="line"/>
      <point x="80" y="343" type="line"/>
      <point x="74" y="331" type="line"/>
      <point x="69" y="317" type="line"/>
      <point x="64" y="303" type="line"/>
      <point x="60" y="288" type="line"/>
      <point x="56" y="272" type="line"/>
      <point x="54" y="255" type="line"/>
      <point x="52" y="238" type="line"/>
      <point x="50" y="219" type="line"/>
      <point x="50" y="200" type="line"/>
      <point x="50" y="192" type="line"/>
      <point x="50" y="185" type="line"/>
      <point x="50" y="178" type="line"/>
      <point x="50" y="170" type="line"/>
      <point x="51" y="161" type="line"/>
      <point x="51" y="153" type="line"/>
      <point x="52" y="144" type="line"/>
      <point x="53" y="135" type="line"/>
      <point x="55" y="126" type="line"/>
      <point x="56" y="116" type="line"/>
      <point x="59" y="107" type="line"/>
      <point x="61" y="97" type="line"/>
      <point x="64" y="87" type="line"/>
      <point x="68" y="77" type="line"/>
      <point x="73" y="68" type="line"/>
      <point x="78" y="58" type="line"/>
      <point x="84" y="48" type="line"/>
      <point x="90" y="39" type="line"/>
      <point x="98" y="30" type="line" smooth="yes"/>
      <point x="98" y="29"/>
      <point x="99" y="28"/>
      <point x="100" y="27" type="curve" smooth="yes"/>
      <point x="106" y="21" type="line"/>
      <point x="115" y="12" type="line"/>
      <point x="125" y="5" type="line"/>
      <point x="136" y="-3" type="line"/>
      <point x="148" y="-9" type="line"/>
      <point x="161" y="-15" type="line"/>
      <point x="174" y="-21" type="line"/>
      <point x="188" y="-26" type="line"/>
      <point x="203" y="-30" type="line"/>
      <point x="219" y="-33" type="line"/>
      <point x="236" y="-36" type="line"/>
      <point x="253" y="-37" type="line"/>
      <point x="272" y="-39" type="line"/>
      <point x="291" y="-39" type="line" smooth="yes"/>
      <point x="301" y="-39"/>
      <point x="314" y="-34"/>
    </contour>
  </outline>
</glyph>
<glyph name="asterisk" format="1">
  <advance width="580"/>
  <unicode hex="002A"/>
  <outline>
    <contour>
      <point x="464" y="270" type="curve" smooth="yes"/>
      <point x="481" y="283"/>
      <point x="485" y="309"/>
      <point x="472" y="326" type="curve" smooth="yes"/>
      <point x="370" y="462" type="line"/>
      <point x="490" y="462" type="line" smooth="yes"/>
      <point x="512" y="462"/>
      <point x="530" y="480"/>
      <point x="530" y="502" type="curve" smooth="yes"/>
      <point x="530" y="524"/>
      <point x="512" y="542"/>
      <point x="490" y="542" type="curve" smooth="yes"/>
      <point x="330" y="542" type="line"/>
      <point x="330" y="702" type="line" smooth="yes"/>
      <point x="330" y="724"/>
      <point x="312" y="742"/>
      <point x="290" y="742" type="curve" smooth="yes"/>
      <point x="268" y="742"/>
      <point x="250" y="724"/>
      <point x="250" y="702" type="curve" smooth="yes"/>
      <point x="250" y="542" type="line"/>
      <point x="90" y="542" type="line" smooth="yes"/>
      <point x="68" y="542"/>
      <point x="50" y="524"/>
      <point x="50" y="502" type="curve" smooth="yes"/>
      <point x="50" y="480"/>
      <point x="68" y="462"/>
      <point x="90" y="462" type="curve" smooth="yes"/>
      <point x="213" y="462" type="line"/>
      <point x="123" y="333" type="line"/>
      <point x="117" y="325" type="line" smooth="yes"/>
      <point x="105" y="307"/>
      <point x="109" y="282"/>
      <point x="127" y="269" type="curve" smooth="yes"/>
      <point x="145" y="257"/>
      <point x="170" y="261"/>
      <point x="183" y="279" type="curve" smooth="yes"/>
      <point x="291" y="434" type="line"/>
      <point x="408" y="278" type="line" smooth="yes"/>
      <point x="421" y="261"/>
      <point x="447" y="257"/>
    </contour>
  </outline>
</glyph>
<glyph name="comma" format="1">
  <advance width="280"/>
  <unicode hex="002C"/>
  <outline>
    <contour>
      <point x="90" y="-98" type="curve" smooth="yes"/>
      <point x="190" y="-98" type="line" smooth="yes"/>
      <point x="212" y="-98"/>
      <point x="230" y="-80"/>
      <point x="230" y="-58" type="curve" smooth="yes"/>
      <point x="230" y="142" type="line" smooth="yes"/>
      <point x="230" y="164"/>
      <point x="212" y="182"/>
      <point x="190" y="182" type="curve" smooth="yes"/>
      <point x="168" y="182"/>
      <point x="150" y="164"/>
      <point x="150" y="142" type="curve" smooth="yes"/>
      <point x="150" y="-18" type="line"/>
      <point x="90" y="-18" type="line" smooth="yes"/>
      <point x="68" y="-18"/>
      <point x="50" y="-36"/>
      <point x="50" y="-58" type="curve" smooth="yes"/>
      <point x="50" y="-80"/>
      <point x="68" y="-98"/>
    </contour>
  </outline>
</glyph>
<glyph name="hyphen" format="1">
  <advance width="380"/>
  <unicode hex="002D"/>
  <outline>
    <contour>
      <point x="90" y="256" type="curve" smooth="yes"/>
      <point x="290" y="256" type="line" smooth="yes"/>
      <point x="312" y="256"/>
      <point x="330" y="274"/>
      <point x="330" y="296" type="curve" smooth="yes"/>
      <point x="330" y="318"/>
      <point x="312" y="336"/>
      <point x="290" y="336" type="curve" smooth="yes"/>
      <point x="90" y="336" type="line" smooth="yes"/>
      <point x="68" y="336"/>
      <point x="50" y="318"/>
      <point x="50" y="296" type="curve" smooth="yes"/>
      <point x="50" y="274"/>
      <point x="68" y="256"/>
    </contour>
  </outline>
</glyph>
<glyph name="zero" format="1">
  <advance width="780"/>
  <unicode hex="0030"/>
  <outline>
    <contour>
      <point x="290" y="-38" type="line" smooth="yes"/>
      <point x="492" y="-38" type="line"/>
      <point x="511" y="-38" type="line"/>
      <point x="529" y="-37" type="line"/>
      <point x="547" y="-35" type="line"/>
      <point x="563" y="-32" type="line"/>
      <point x="579" y="-29" type="line"/>
      <point x="594" y="-25" type="line"/>
      <point x="608" y="-20" type="line"/>
      <point x="621" y="-15" type="line"/>
      <point x="634" y="-9" type="line"/>
      <point x="645" y="-2" type="line"/>
      <point x="656" y="5" type="line"/>
      <point x="666" y="13" type="line" smooth="yes"/>
      <point x="667" y="13"/>
      <point x="668" y="14"/>
      <point x="668" y="15" type="curve" smooth="yes"/>
      <point x="675" y="21" type="line"/>
      <point x="684" y="30" type="line"/>
      <point x="691" y="40" type="line"/>
      <point x="698" y="49" type="line"/>
      <point x="704" y="59" type="line"/>
      <point x="709" y="69" type="line"/>
      <point x="713" y="79" type="line"/>
      <point x="717" y="89" type="line"/>
      <point x="720" y="99" type="line"/>
      <point x="723" y="109" type="line"/>
      <point x="725" y="119" type="line"/>
      <point x="726" y="128" type="line"/>
      <point x="728" y="138" type="line"/>
      <point x="728" y="147" type="line"/>
      <point x="729" y="156" type="line"/>
      <point x="730" y="164" type="line"/>
      <point x="730" y="173" type="line"/>
      <point x="730" y="181" type="line"/>
      <point x="730" y="188" type="line"/>
      <point x="730" y="195" type="line"/>
      <point x="730" y="202" type="line"/>
      <point x="730" y="212" type="line"/>
      <point x="730" y="602" type="line"/>
      <point x="730" y="612" type="line"/>
      <point x="728" y="624" type="line"/>
      <point x="728" y="632" type="line"/>
      <point x="726" y="639" type="line"/>
      <point x="725" y="648" type="line"/>
      <point x="723" y="657" type="line"/>
      <point x="721" y="666" type="line"/>
      <point x="718" y="676" type="line"/>
      <point x="715" y="687" type="line"/>
      <point x="711" y="697" type="line"/>
      <point x="706" y="708" type="line"/>
      <point x="701" y="719" type="line"/>
      <point x="695" y="730" type="line"/>
      <point x="688" y="741" type="line"/>
      <point x="681" y="753" type="line"/>
      <point x="672" y="763" type="line"/>
      <point x="663" y="774" type="line"/>
      <point x="652" y="784" type="line" smooth="yes"/>
      <point x="652" y="785"/>
      <point x="651" y="786"/>
      <point x="650" y="786" type="curve" smooth="yes"/>
      <point x="641" y="794" type="line"/>
      <point x="628" y="803" type="line"/>
      <point x="614" y="812" type="line" smooth="yes"/>
      <point x="614" y="812"/>
      <point x="612" y="813"/>
      <point x="612" y="813" type="curve" smooth="yes"/>
      <point x="600" y="819" type="line"/>
      <point x="584" y="826" type="line" smooth="yes"/>
      <point x="583" y="826"/>
      <point x="582" y="827"/>
      <point x="581" y="827" type="curve" smooth="yes"/>
      <point x="567" y="831" type="line"/>
      <point x="549" y="836" type="line"/>
      <point x="530" y="839" type="line"/>
      <point x="510" y="841" type="line"/>
      <point x="489" y="842" type="line"/>
      <point x="478" y="842" type="line"/>
      <point x="288" y="842" type="line"/>
      <point x="269" y="842" type="line"/>
      <point x="251" y="841" type="line"/>
      <point x="233" y="839" type="line"/>
      <point x="217" y="836" type="line"/>
      <point x="201" y="833" type="line"/>
      <point x="186" y="829" type="line"/>
      <point x="172" y="824" type="line"/>
      <point x="159" y="819" type="line"/>
      <point x="146" y="813" type="line"/>
      <point x="135" y="806" type="line"/>
      <point x="124" y="799" type="line"/>
      <point x="114" y="791" type="line" smooth="yes"/>
      <point x="113" y="790"/>
      <point x="112" y="789"/>
      <point x="111" y="789" type="curve" smooth="yes"/>
      <point x="105" y="782" type="line"/>
      <point x="96" y="773" type="line"/>
      <point x="89" y="764" type="line"/>
      <point x="82" y="754" type="line"/>
      <point x="76" y="745" type="line"/>
      <point x="71" y="735" type="line"/>
      <point x="67" y="725" type="line"/>
      <point x="63" y="715" type="line"/>
      <point x="60" y="705" type="line"/>
      <point x="57" y="695" type="line"/>
      <point x="55" y="685" type="line"/>
      <point x="54" y="675" type="line"/>
      <point x="52" y="666" type="line"/>
      <point x="52" y="657" type="line"/>
      <point x="51" y="648" type="line"/>
      <point x="50" y="639" type="line"/>
      <point x="50" y="631" type="line"/>
      <point x="50" y="623" type="line"/>
      <point x="50" y="616" type="line"/>
      <point x="50" y="609" type="line"/>
      <point x="50" y="602" type="line"/>
      <point x="50" y="592" type="line"/>
      <point x="50" y="202" type="line"/>
      <point x="50" y="195" type="line"/>
      <point x="50" y="188" type="line"/>
      <point x="50" y="181" type="line"/>
      <point x="50" y="173" type="line"/>
      <point x="51" y="165" type="line"/>
      <point x="51" y="156" type="line"/>
      <point x="52" y="147" type="line"/>
      <point x="53" y="138" type="line"/>
      <point x="55" y="129" type="line"/>
      <point x="56" y="119" type="line"/>
      <point x="58" y="110" type="line"/>
      <point x="61" y="100" type="line"/>
      <point x="64" y="90" type="line"/>
      <point x="68" y="80" type="line"/>
      <point x="73" y="70" type="line"/>
      <point x="78" y="60" type="line"/>
      <point x="84" y="51" type="line"/>
      <point x="90" y="41" type="line"/>
      <point x="98" y="32" type="line"/>
      <point x="106" y="23" type="line"/>
      <point x="115" y="15" type="line"/>
      <point x="125" y="7" type="line" smooth="yes"/>
      <point x="126" y="6"/>
      <point x="127" y="5"/>
      <point x="128" y="5" type="curve" smooth="yes"/>
      <point x="136" y="-1" type="line"/>
      <point x="148" y="-8" type="line"/>
      <point x="160" y="-14" type="line"/>
      <point x="174" y="-19" type="line"/>
      <point x="188" y="-24" type="line"/>
      <point x="203" y="-28" type="line"/>
      <point x="219" y="-32" type="line"/>
      <point x="236" y="-34" type="line"/>
      <point x="253" y="-36" type="line"/>
      <point x="272" y="-38" type="line"/>
      <point x="289" y="-38" type="line"/>
    </contour>
    <contour>
      <point x="135" y="134" type="line"/>
      <point x="134" y="141" type="line"/>
      <point x="133" y="148" type="line"/>
      <point x="132" y="154" type="line"/>
      <point x="131" y="161" type="line"/>
      <point x="131" y="168" type="line"/>
      <point x="130" y="175" type="line"/>
      <point x="130" y="182" type="line"/>
      <point x="130" y="189" type="line"/>
      <point x="130" y="195" type="line"/>
      <point x="130" y="202" type="line"/>
      <point x="130" y="592" type="line"/>
      <point x="130" y="602" type="line"/>
      <point x="130" y="609" type="line"/>
      <point x="130" y="615" type="line"/>
      <point x="130" y="622" type="line"/>
      <point x="130" y="628" type="line"/>
      <point x="130" y="635" type="line"/>
      <point x="131" y="642" type="line"/>
      <point x="131" y="649" type="line"/>
      <point x="132" y="656" type="line"/>
      <point x="133" y="662" type="line"/>
      <point x="134" y="669" type="line"/>
      <point x="135" y="675" type="line"/>
      <point x="137" y="681" type="line"/>
      <point x="138" y="687" type="line"/>
      <point x="140" y="693" type="line"/>
      <point x="143" y="699" type="line"/>
      <point x="145" y="704" type="line"/>
      <point x="148" y="709" type="line"/>
      <point x="151" y="714" type="line"/>
      <point x="155" y="719" type="line"/>
      <point x="159" y="724" type="line"/>
      <point x="165" y="730" type="line"/>
      <point x="169" y="733" type="line"/>
      <point x="175" y="737" type="line"/>
      <point x="182" y="741" type="line"/>
      <point x="189" y="745" type="line"/>
      <point x="198" y="748" type="line"/>
      <point x="207" y="752" type="line"/>
      <point x="218" y="755" type="line"/>
      <point x="229" y="757" type="line"/>
      <point x="242" y="759" type="line"/>
      <point x="256" y="761" type="line"/>
      <point x="271" y="762" type="line"/>
      <point x="288" y="762" type="line"/>
      <point x="478" y="762" type="line"/>
      <point x="487" y="762" type="line"/>
      <point x="502" y="762" type="line"/>
      <point x="517" y="760" type="line"/>
      <point x="530" y="758" type="line"/>
      <point x="542" y="755" type="line"/>
      <point x="555" y="751" type="line"/>
      <point x="564" y="748" type="line"/>
      <point x="575" y="742" type="line"/>
      <point x="581" y="738" type="line"/>
      <point x="589" y="733" type="line"/>
      <point x="591" y="731" type="line"/>
      <point x="136" y="130" type="line"/>
    </contour>
    <contour>
      <point x="277" y="42" type="line"/>
      <point x="262" y="43" type="line"/>
      <point x="248" y="45" type="line"/>
      <point x="235" y="46" type="line"/>
      <point x="224" y="49" type="line"/>
      <point x="213" y="52" type="line"/>
      <point x="204" y="55" type="line"/>
      <point x="195" y="58" type="line"/>
      <point x="188" y="62" type="line"/>
      <point x="185" y="63" type="line"/>
      <point x="639" y="661" type="line"/>
      <point x="641" y="654" type="line"/>
      <point x="643" y="647" type="line"/>
      <point x="645" y="640" type="line"/>
      <point x="646" y="633" type="line"/>
      <point x="647" y="627" type="line"/>
      <point x="648" y="621" type="line"/>
      <point x="649" y="617" type="line"/>
      <point x="650" y="609" type="line"/>
      <point x="650" y="602" type="line"/>
      <point x="650" y="212" type="line"/>
      <point x="650" y="202" type="line"/>
      <point x="650" y="195" type="line"/>
      <point x="650" y="189" type="line"/>
      <point x="650" y="182" type="line"/>
      <point x="650" y="175" type="line"/>
      <point x="650" y="168" type="line"/>
      <point x="649" y="162" type="line"/>
      <point x="649" y="155" type="line"/>
      <point x="648" y="148" type="line"/>
      <point x="647" y="141" type="line"/>
      <point x="646" y="135" type="line"/>
      <point x="645" y="128" type="line"/>
      <point x="643" y="122" type="line"/>
      <point x="642" y="116" type="line"/>
      <point x="640" y="110" type="line"/>
      <point x="637" y="105" type="line"/>
      <point x="635" y="99" type="line"/>
      <point x="632" y="94" type="line"/>
      <point x="629" y="89" type="line"/>
      <point x="625" y="84" type="line"/>
      <point x="621" y="80" type="line"/>
      <point x="615" y="74" type="line"/>
      <point x="611" y="71" type="line"/>
      <point x="605" y="67" type="line"/>
      <point x="598" y="63" type="line"/>
      <point x="591" y="59" type="line"/>
      <point x="582" y="56" type="line"/>
      <point x="573" y="52" type="line"/>
      <point x="562" y="49" type="line"/>
      <point x="551" y="47" type="line"/>
      <point x="538" y="45" type="line"/>
      <point x="524" y="43" type="line"/>
      <point x="509" y="42" type="line"/>
      <point x="492" y="42" type="line"/>
      <point x="292" y="42" type="line"/>
    </contour>
  </outline>
</glyph>
<glyph name="one" format="1">
  <advance width="780"/>
  <unicode hex="0031"/>
  <outline>
    <contour>
      <point x="90" y="-39" type="curve" smooth="yes"/>
      <point x="690" y="-39" type="line" smooth="yes"/>
      <point x="712" y="-39"/>
      <point x="730" y="-21"/>
      <point x="730" y="1" type="curve" smooth="yes"/>
      <point x="730" y="23"/>
      <point x="712" y="41"/>
      <point x="690" y="41" type="curve" smooth="yes"/>
      <point x="390" y="41" type="line"/>
      <point x="393" y="45" type="line"/>
      <point x="400" y="57" type="line"/>
      <point x="406" y="70" type="line"/>
      <point x="411" y="83" type="line"/>
      <point x="416" y="97" type="line"/>
      <point x="420" y="112" type="line"/>
      <point x="424" y="128" type="line"/>
      <point x="426" y="145" type="line"/>
      <point x="428" y="162" type="line"/>
      <point x="430" y="181" type="line"/>
      <point x="430" y="200" type="line"/>
      <point x="430" y="211" type="line"/>
      <point x="430" y="791" type="line" smooth="yes"/>
      <point x="430" y="843"/>
      <point x="352" y="845"/>
      <point x="350" y="793" type="curve" smooth="yes"/>
      <point x="350" y="785" type="line"/>
      <point x="349" y="769" type="line"/>
      <point x="347" y="755" type="line"/>
      <point x="345" y="742" type="line"/>
      <point x="343" y="731" type="line"/>
      <point x="340" y="720" type="line"/>
      <point x="336" y="711" type="line"/>
      <point x="333" y="702" type="line"/>
      <point x="329" y="695" type="line"/>
      <point x="325" y="688" type="line"/>
      <point x="321" y="682" type="line"/>
      <point x="316" y="676" type="line"/>
      <point x="312" y="672" type="line"/>
      <point x="309" y="669" type="line"/>
      <point x="302" y="664" type="line"/>
      <point x="297" y="660" type="line"/>
      <point x="292" y="657" type="line"/>
      <point x="287" y="655" type="line"/>
      <point x="281" y="652" type="line"/>
      <point x="275" y="650" type="line"/>
      <point x="269" y="648" type="line"/>
      <point x="263" y="647" type="line"/>
      <point x="257" y="645" type="line"/>
      <point x="250" y="644" type="line"/>
      <point x="244" y="643" type="line"/>
      <point x="237" y="642" type="line"/>
      <point x="230" y="642" type="line"/>
      <point x="223" y="642" type="line"/>
      <point x="216" y="641" type="line"/>
      <point x="210" y="641" type="line"/>
      <point x="203" y="641" type="line"/>
      <point x="196" y="641" type="line"/>
      <point x="100" y="641" type="line"/>
      <point x="90" y="641" type="line" smooth="yes"/>
      <point x="68" y="641"/>
      <point x="50" y="623"/>
      <point x="50" y="601" type="curve" smooth="yes"/>
      <point x="50" y="579"/>
      <point x="68" y="561"/>
      <point x="90" y="561" type="curve" smooth="yes"/>
      <point x="197" y="561" type="line"/>
      <point x="204" y="561" type="line"/>
      <point x="212" y="561" type="line"/>
      <point x="220" y="561" type="line"/>
      <point x="228" y="562" type="line"/>
      <point x="237" y="562" type="line"/>
      <point x="246" y="563" type="line"/>
      <point x="255" y="564" type="line"/>
      <point x="264" y="565" type="line"/>
      <point x="274" y="567" type="line"/>
      <point x="284" y="569" type="line"/>
      <point x="294" y="572" type="line"/>
      <point x="304" y="575" type="line"/>
      <point x="314" y="579" type="line"/>
      <point x="324" y="584" type="line"/>
      <point x="333" y="589" type="line"/>
      <point x="343" y="595" type="line"/>
      <point x="350" y="600" type="line"/>
      <point x="350" y="211" type="line"/>
      <point x="350" y="202" type="line"/>
      <point x="350" y="186" type="line"/>
      <point x="349" y="171" type="line"/>
      <point x="347" y="157" type="line"/>
      <point x="346" y="144" type="line"/>
      <point x="343" y="133" type="line"/>
      <point x="340" y="123" type="line"/>
      <point x="337" y="113" type="line"/>
      <point x="334" y="105" type="line"/>
      <point x="330" y="97" type="line"/>
      <point x="327" y="90" type="line"/>
      <point x="323" y="84" type="line"/>
      <point x="318" y="79" type="line"/>
      <point x="314" y="74" type="line"/>
      <point x="308" y="68" type="line"/>
      <point x="305" y="65" type="line"/>
      <point x="300" y="62" type="line"/>
      <point x="294" y="59" type="line"/>
      <point x="289" y="56" type="line"/>
      <point x="283" y="53" type="line"/>
      <point x="277" y="51" type="line"/>
      <point x="271" y="49" type="line"/>
      <point x="265" y="47" type="line"/>
      <point x="258" y="46" type="line"/>
      <point x="252" y="44" type="line"/>
      <point x="245" y="43" type="line"/>
      <point x="238" y="43" type="line"/>
      <point x="231" y="42" type="line"/>
      <point x="224" y="42" type="line"/>
      <point x="217" y="41" type="line"/>
      <point x="210" y="41" type="line"/>
      <point x="203" y="41" type="line"/>
      <point x="197" y="41" type="line"/>
      <point x="190" y="41" type="line" smooth="yes"/>
      <point x="90" y="41" type="line" smooth="yes"/>
      <point x="68" y="41"/>
      <point x="50" y="23"/>
      <point x="50" y="1" type="curve" smooth="yes"/>
      <point x="50" y="-21"/>
      <point x="68" y="-39"/>
    </contour>
  </outline>
</glyph>
<glyph name="two" format="1">
  <advance width="780"/>
  <unicode hex="0032"/>
  <outline>
    <contour>
      <point x="90" y="-40" type="curve" smooth="yes"/>
      <point x="690" y="-40" type="line" smooth="yes"/>
      <point x="712" y="-40"/>
      <point x="730" y="-22"/>
      <point x="730" y="0" type="curve" smooth="yes"/>
      <point x="730" y="22"/>
      <point x="712" y="40"/>
      <point x="690" y="40" type="curve" smooth="yes"/>
      <point x="130" y="40" type="line"/>
      <point x="130" y="200" type="line"/>
      <point x="130" y="217" type="line"/>
      <point x="131" y="232" type="line"/>
      <point x="133" y="246" type="line"/>
      <point x="135" y="259" type="line"/>
      <point x="137" y="270" type="line"/>
      <point x="140" y="281" type="line"/>
      <point x="144" y="290" type="line"/>
      <point x="147" y="299" type="line"/>
      <point x="151" y="306" type="line"/>
      <point x="155" y="313" type="line"/>
      <point x="159" y="319" type="line"/>
      <point x="164" y="325" type="line"/>
      <point x="168" y="329" type="line"/>
      <point x="171" y="332" type="line"/>
      <point x="178" y="337" type="line"/>
      <point x="183" y="341" type="line"/>
      <point x="188" y="344" type="line"/>
      <point x="193" y="346" type="line"/>
      <point x="199" y="349" type="line"/>
      <point x="205" y="351" type="line"/>
      <point x="211" y="353" type="line"/>
      <point x="217" y="354" type="line"/>
      <point x="223" y="356" type="line"/>
      <point x="230" y="357" type="line"/>
      <point x="236" y="358" type="line"/>
      <point x="243" y="359" type="line"/>
      <point x="250" y="359" type="line"/>
      <point x="257" y="359" type="line"/>
      <point x="264" y="360" type="line"/>
      <point x="270" y="360" type="line"/>
      <point x="277" y="360" type="line"/>
      <point x="284" y="360" type="line"/>
      <point x="497" y="360" type="line"/>
      <point x="504" y="360" type="line"/>
      <point x="511" y="360" type="line"/>
      <point x="519" y="360" type="line"/>
      <point x="527" y="361" type="line"/>
      <point x="536" y="361" type="line"/>
      <point x="545" y="362" type="line"/>
      <point x="554" y="363" type="line"/>
      <point x="563" y="364" type="line"/>
      <point x="572" y="366" type="line"/>
      <point x="582" y="368" type="line"/>
      <point x="592" y="370" type="line"/>
      <point x="602" y="374" type="line"/>
      <point x="612" y="377" type="line"/>
      <point x="621" y="382" type="line"/>
      <point x="631" y="387" type="line"/>
      <point x="641" y="392" type="line"/>
      <point x="651" y="399" type="line"/>
      <point x="660" y="406" type="line" smooth="yes"/>
      <point x="660" y="407"/>
      <point x="661" y="408"/>
      <point x="662" y="408" type="curve" smooth="yes"/>
      <point x="669" y="414" type="line"/>
      <point x="677" y="424" type="line"/>
      <point x="685" y="434" type="line"/>
      <point x="693" y="444" type="line"/>
      <point x="700" y="456" type="line"/>
      <point x="706" y="469" type="line"/>
      <point x="711" y="482" type="line"/>
      <point x="716" y="496" type="line"/>
      <point x="720" y="511" type="line"/>
      <point x="724" y="527" type="line"/>
      <point x="726" y="544" type="line"/>
      <point x="728" y="561" type="line"/>
      <point x="730" y="580" type="line"/>
      <point x="730" y="599" type="line"/>
      <point x="730" y="610" type="line"/>
      <point x="729" y="622" type="line"/>
      <point x="728" y="629" type="line"/>
      <point x="727" y="637" type="line"/>
      <point x="725" y="645" type="line"/>
      <point x="723" y="654" type="line"/>
      <point x="721" y="664" type="line"/>
      <point x="719" y="674" type="line"/>
      <point x="715" y="684" type="line"/>
      <point x="712" y="695" type="line"/>
      <point x="707" y="706" type="line"/>
      <point x="702" y="717" type="line"/>
      <point x="696" y="728" type="line"/>
      <point x="690" y="739" type="line"/>
      <point x="682" y="750" type="line"/>
      <point x="674" y="761" type="line"/>
      <point x="664" y="772" type="line"/>
      <point x="654" y="782" type="line"/>
      <point x="642" y="792" type="line" smooth="yes"/>
      <point x="642" y="793"/>
      <point x="641" y="793"/>
      <point x="640" y="794" type="curve" smooth="yes"/>
      <point x="630" y="801" type="line"/>
      <point x="616" y="810" type="line" smooth="yes"/>
      <point x="616" y="810"/>
      <point x="614" y="811"/>
      <point x="614" y="811" type="curve" smooth="yes"/>
      <point x="602" y="817" type="line"/>
      <point x="586" y="824" type="line" smooth="yes"/>
      <point x="585" y="824"/>
      <point x="584" y="825"/>
      <point x="583" y="825" type="curve" smooth="yes"/>
      <point x="569" y="829" type="line"/>
      <point x="551" y="834" type="line"/>
      <point x="532" y="837" type="line"/>
      <point x="512" y="839" type="line"/>
      <point x="491" y="840" type="line"/>
      <point x="480" y="840" type="line"/>
      <point x="283" y="840" type="line"/>
      <point x="276" y="840" type="line"/>
      <point x="269" y="840" type="line"/>
      <point x="261" y="840" type="line"/>
      <point x="253" y="839" type="line"/>
      <point x="244" y="839" type="line"/>
      <point x="235" y="838" type="line"/>
      <point x="226" y="837" type="line"/>
      <point x="217" y="836" type="line"/>
      <point x="208" y="834" type="line"/>
      <point x="198" y="832" type="line"/>
      <point x="188" y="830" type="line"/>
      <point x="178" y="826" type="line"/>
      <point x="168" y="823" type="line"/>
      <point x="159" y="818" type="line"/>
      <point x="149" y="813" type="line"/>
      <point x="139" y="808" type="line"/>
      <point x="129" y="801" type="line"/>
      <point x="120" y="794" type="line" smooth="yes"/>
      <point x="120" y="793"/>
      <point x="119" y="792"/>
      <point x="118" y="792" type="curve" smooth="yes"/>
      <point x="111" y="786" type="line"/>
      <point x="103" y="776" type="line"/>
      <point x="95" y="766" type="line"/>
      <point x="87" y="756" type="line"/>
      <point x="80" y="744" type="line"/>
      <point x="74" y="731" type="line"/>
      <point x="69" y="718" type="line"/>
      <point x="64" y="704" type="line"/>
      <point x="60" y="689" type="line"/>
      <point x="56" y="673" type="line"/>
      <point x="54" y="656" type="line"/>
      <point x="52" y="639" type="line"/>
      <point x="50" y="620" type="line"/>
      <point x="50" y="601" type="line" smooth="yes"/>
      <point x="50" y="579"/>
      <point x="68" y="560"/>
      <point x="89" y="560" type="curve" smooth="yes"/>
      <point x="111" y="560"/>
      <point x="130" y="578"/>
      <point x="130" y="599" type="curve" smooth="yes"/>
      <point x="130" y="615" type="line"/>
      <point x="131" y="630" type="line"/>
      <point x="133" y="644" type="line"/>
      <point x="134" y="657" type="line"/>
      <point x="137" y="668" type="line"/>
      <point x="140" y="678" type="line"/>
      <point x="143" y="688" type="line"/>
      <point x="146" y="696" type="line"/>
      <point x="150" y="704" type="line"/>
      <point x="153" y="711" type="line"/>
      <point x="157" y="717" type="line"/>
      <point x="162" y="722" type="line"/>
      <point x="166" y="727" type="line"/>
      <point x="172" y="733" type="line"/>
      <point x="175" y="736" type="line"/>
      <point x="180" y="739" type="line"/>
      <point x="186" y="742" type="line"/>
      <point x="191" y="745" type="line"/>
      <point x="197" y="748" type="line"/>
      <point x="203" y="750" type="line"/>
      <point x="209" y="752" type="line"/>
      <point x="215" y="754" type="line"/>
      <point x="222" y="755" type="line"/>
      <point x="228" y="757" type="line"/>
      <point x="235" y="758" type="line"/>
      <point x="242" y="758" type="line"/>
      <point x="249" y="759" type="line"/>
      <point x="256" y="759" type="line"/>
      <point x="263" y="760" type="line"/>
      <point x="270" y="760" type="line"/>
      <point x="277" y="760" type="line"/>
      <point x="283" y="760" type="line"/>
      <point x="480" y="760" type="line"/>
      <point x="489" y="760" type="line"/>
      <point x="504" y="760" type="line"/>
      <point x="519" y="758" type="line"/>
      <point x="532" y="756" type="line"/>
      <point x="544" y="753" type="line"/>
      <point x="557" y="749" type="line"/>
      <point x="565" y="746" type="line"/>
      <point x="576" y="740" type="line"/>
      <point x="583" y="736" type="line"/>
      <point x="592" y="730" type="line"/>
      <point x="598" y="725" type="line"/>
      <point x="604" y="719" type="line"/>
      <point x="610" y="712" type="line"/>
      <point x="616" y="705" type="line"/>
      <point x="621" y="698" type="line"/>
      <point x="625" y="691" type="line"/>
      <point x="629" y="683" type="line"/>
      <point x="633" y="676" type="line"/>
      <point x="636" y="668" type="line"/>
      <point x="639" y="660" type="line"/>
      <point x="641" y="653" type="line"/>
      <point x="643" y="645" type="line"/>
      <point x="645" y="638" type="line"/>
      <point x="646" y="632" type="line"/>
      <point x="648" y="626" type="line"/>
      <point x="648" y="620" type="line"/>
      <point x="649" y="615" type="line"/>
      <point x="650" y="607" type="line"/>
      <point x="650" y="601" type="line"/>
      <point x="650" y="585" type="line"/>
      <point x="649" y="570" type="line"/>
      <point x="647" y="556" type="line"/>
      <point x="646" y="543" type="line"/>
      <point x="643" y="532" type="line"/>
      <point x="640" y="522" type="line"/>
      <point x="637" y="512" type="line"/>
      <point x="634" y="504" type="line"/>
      <point x="630" y="496" type="line"/>
      <point x="627" y="489" type="line"/>
      <point x="623" y="483" type="line"/>
      <point x="618" y="478" type="line"/>
      <point x="614" y="473" type="line"/>
      <point x="608" y="467" type="line"/>
      <point x="605" y="464" type="line"/>
      <point x="600" y="461" type="line"/>
      <point x="594" y="458" type="line"/>
      <point x="589" y="455" type="line"/>
      <point x="583" y="452" type="line"/>
      <point x="577" y="450" type="line"/>
      <point x="571" y="448" type="line"/>
      <point x="565" y="446" type="line"/>
      <point x="558" y="445" type="line"/>
      <point x="552" y="443" type="line"/>
      <point x="545" y="442" type="line"/>
      <point x="538" y="442" type="line"/>
      <point x="531" y="441" type="line"/>
      <point x="524" y="441" type="line"/>
      <point x="517" y="440" type="line"/>
      <point x="510" y="440" type="line"/>
      <point x="503" y="440" type="line"/>
      <point x="497" y="440" type="line"/>
      <point x="283" y="440" type="line"/>
      <point x="276" y="440" type="line"/>
      <point x="268" y="440" type="line"/>
      <point x="260" y="440" type="line"/>
      <point x="252" y="439" type="line"/>
      <point x="243" y="439" type="line"/>
      <point x="234" y="438" type="line"/>
      <point x="225" y="437" type="line"/>
      <point x="216" y="436" type="line"/>
      <point x="206" y="434" type="line"/>
      <point x="196" y="432" type="line"/>
      <point x="186" y="429" type="line"/>
      <point x="176" y="426" type="line"/>
      <point x="166" y="422" type="line"/>
      <point x="156" y="417" type="line"/>
      <point x="147" y="412" type="line"/>
      <point x="137" y="406" type="line"/>
      <point x="127" y="399" type="line"/>
      <point x="120" y="394" type="line" smooth="yes"/>
      <point x="120" y="393"/>
      <point x="119" y="392"/>
      <point x="118" y="392" type="curve" smooth="yes"/>
      <point x="109" y="383" type="line"/>
      <point x="101" y="374" type="line"/>
      <point x="93" y="364" type="line"/>
      <point x="86" y="353" type="line"/>
      <point x="79" y="341" type="line"/>
      <point x="73" y="329" type="line"/>
      <point x="68" y="316" type="line"/>
      <point x="63" y="302" type="line"/>
      <point x="59" y="287" type="line"/>
      <point x="56" y="271" type="line"/>
      <point x="53" y="254" type="line"/>
      <point x="51" y="237" type="line"/>
      <point x="50" y="219" type="line"/>
      <point x="50" y="200" type="line"/>
      <point x="50" y="0" type="line" smooth="yes"/>
      <point x="50" y="-22"/>
      <point x="68" y="-40"/>
    </contour>
  </outline>
</glyph>
<glyph name="three" format="1">
  <advance width="780"/>
  <unicode hex="0033"/>
  <outline>
    <contour>
      <point x="290" y="-39" type="line"/>
      <point x="497" y="-39" type="line"/>
      <point x="504" y="-39" type="line"/>
      <point x="512" y="-39" type="line"/>
      <point x="520" y="-39" type="line"/>
      <point x="528" y="-38" type="line"/>
      <point x="537" y="-38" type="line"/>
      <point x="546" y="-37" type="line"/>
      <point x="555" y="-36" type="line"/>
      <point x="564" y="-35" type="line"/>
      <point x="574" y="-33" type="line"/>
      <point x="584" y="-31" type="line"/>
      <point x="594" y="-28" type="line"/>
      <point x="604" y="-25" type="line"/>
      <point x="614" y="-21" type="line"/>
      <point x="624" y="-16" type="line"/>
      <point x="633" y="-11" type="line"/>
      <point x="643" y="-5" type="line"/>
      <point x="653" y="2" type="line"/>
      <point x="660" y="7" type="line" smooth="yes"/>
      <point x="660" y="8"/>
      <point x="661" y="9"/>
      <point x="662" y="9" type="curve" smooth="yes"/>
      <point x="671" y="18" type="line"/>
      <point x="679" y="27" type="line"/>
      <point x="687" y="37" type="line"/>
      <point x="694" y="48" type="line"/>
      <point x="701" y="60" type="line"/>
      <point x="707" y="72" type="line"/>
      <point x="712" y="85" type="line"/>
      <point x="717" y="99" type="line"/>
      <point x="721" y="114" type="line"/>
      <point x="724" y="130" type="line"/>
      <point x="727" y="147" type="line"/>
      <point x="729" y="164" type="line"/>
      <point x="730" y="182" type="line"/>
      <point x="730" y="201" type="line"/>
      <point x="730" y="208" type="line"/>
      <point x="730" y="215" type="line"/>
      <point x="730" y="223" type="line"/>
      <point x="730" y="231" type="line"/>
      <point x="729" y="239" type="line"/>
      <point x="729" y="248" type="line"/>
      <point x="728" y="257" type="line"/>
      <point x="727" y="266" type="line"/>
      <point x="726" y="275" type="line"/>
      <point x="724" y="285" type="line"/>
      <point x="722" y="295" type="line"/>
      <point x="719" y="305" type="line"/>
      <point x="716" y="315" type="line"/>
      <point x="712" y="325" type="line"/>
      <point x="707" y="335" type="line"/>
      <point x="702" y="344" type="line"/>
      <point x="696" y="354" type="line"/>
      <point x="689" y="364" type="line"/>
      <point x="684" y="371" type="line" smooth="yes"/>
      <point x="683" y="371"/>
      <point x="682" y="372"/>
      <point x="682" y="373" type="curve" smooth="yes"/>
      <point x="673" y="382" type="line"/>
      <point x="664" y="390" type="line"/>
      <point x="654" y="398" type="line"/>
      <point x="650" y="401" type="line"/>
      <point x="656" y="406" type="line"/>
      <point x="666" y="414" type="line"/>
      <point x="676" y="422" type="line"/>
      <point x="682" y="429" type="line" smooth="yes"/>
      <point x="682" y="430"/>
      <point x="683" y="431"/>
      <point x="684" y="431" type="curve" smooth="yes"/>
      <point x="691" y="440" type="line"/>
      <point x="698" y="450" type="line"/>
      <point x="703" y="460" type="line"/>
      <point x="708" y="470" type="line"/>
      <point x="713" y="479" type="line"/>
      <point x="716" y="489" type="line"/>
      <point x="720" y="499" type="line"/>
      <point x="722" y="509" type="line"/>
      <point x="724" y="519" type="line"/>
      <point x="726" y="528" type="line"/>
      <point x="727" y="537" type="line"/>
      <point x="728" y="546" type="line"/>
      <point x="729" y="555" type="line"/>
      <point x="729" y="564" type="line"/>
      <point x="730" y="572" type="line"/>
      <point x="730" y="580" type="line"/>
      <point x="730" y="587" type="line"/>
      <point x="730" y="594" type="line"/>
      <point x="730" y="602" type="line"/>
      <point x="730" y="621" type="line"/>
      <point x="728" y="640" type="line"/>
      <point x="726" y="657" type="line"/>
      <point x="724" y="674" type="line"/>
      <point x="720" y="690" type="line"/>
      <point x="716" y="705" type="line"/>
      <point x="711" y="719" type="line"/>
      <point x="706" y="732" type="line"/>
      <point x="700" y="745" type="line"/>
      <point x="693" y="757" type="line"/>
      <point x="685" y="767" type="line"/>
      <point x="677" y="777" type="line"/>
      <point x="669" y="787" type="line"/>
      <point x="662" y="793" type="line" smooth="yes"/>
      <point x="661" y="793"/>
      <point x="660" y="794"/>
      <point x="660" y="795" type="curve" smooth="yes"/>
      <point x="651" y="802" type="line"/>
      <point x="641" y="809" type="line"/>
      <point x="631" y="814" type="line"/>
      <point x="621" y="819" type="line"/>
      <point x="612" y="824" type="line"/>
      <point x="602" y="827" type="line"/>
      <point x="592" y="831" type="line"/>
      <point x="582" y="833" type="line"/>
      <point x="572" y="835" type="line"/>
      <point x="563" y="837" type="line"/>
      <point x="554" y="838" type="line"/>
      <point x="545" y="839" type="line"/>
      <point x="536" y="840" type="line"/>
      <point x="527" y="840" type="line"/>
      <point x="519" y="841" type="line"/>
      <point x="511" y="841" type="line"/>
      <point x="504" y="841" type="line"/>
      <point x="497" y="841" type="line"/>
      <point x="490" y="841" type="line" smooth="yes"/>
      <point x="490" y="841" type="line" smooth="yes"/>
      <point x="289" y="841" type="line"/>
      <point x="270" y="841" type="line"/>
      <point x="251" y="839" type="line"/>
      <point x="234" y="837" type="line"/>
      <point x="217" y="835" type="line"/>
      <point x="201" y="831" type="line"/>
      <point x="186" y="827" type="line"/>
      <point x="172" y="822" type="line"/>
      <point x="159" y="817" type="line"/>
      <point x="146" y="811" type="line"/>
      <point x="134" y="804" type="line"/>
      <point x="124" y="796" type="line"/>
      <point x="114" y="788" type="line"/>
      <point x="104" y="780" type="line"/>
      <point x="98" y="773" type="line" smooth="yes"/>
      <point x="98" y="772"/>
      <point x="97" y="771"/>
      <point x="96" y="771" type="curve" smooth="yes"/>
      <point x="89" y="762" type="line"/>
      <point x="82" y="752" type="line"/>
      <point x="77" y="742" type="line"/>
      <point x="72" y="732" type="line"/>
      <point x="67" y="723" type="line"/>
      <point x="64" y="713" type="line"/>
      <point x="60" y="703" type="line"/>
      <point x="58" y="693" type="line"/>
      <point x="56" y="683" type="line"/>
      <point x="54" y="674" type="line"/>
      <point x="53" y="665" type="line"/>
      <point x="52" y="656" type="line"/>
      <point x="51" y="647" type="line"/>
      <point x="51" y="638" type="line"/>
      <point x="50" y="630" type="line"/>
      <point x="50" y="622" type="line"/>
      <point x="50" y="615" type="line"/>
      <point x="50" y="608" type="line"/>
      <point x="50" y="601" type="line" smooth="yes"/>
      <point x="50" y="579"/>
      <point x="68" y="561"/>
      <point x="90" y="561" type="curve" smooth="yes"/>
      <point x="112" y="561"/>
      <point x="130" y="579"/>
      <point x="130" y="601" type="curve" smooth="yes"/>
      <point x="130" y="608" type="line"/>
      <point x="130" y="614" type="line"/>
      <point x="130" y="621" type="line"/>
      <point x="130" y="628" type="line"/>
      <point x="131" y="635" type="line"/>
      <point x="131" y="642" type="line"/>
      <point x="132" y="649" type="line"/>
      <point x="132" y="656" type="line"/>
      <point x="133" y="663" type="line"/>
      <point x="135" y="669" type="line"/>
      <point x="136" y="676" type="line"/>
      <point x="138" y="682" type="line"/>
      <point x="140" y="688" type="line"/>
      <point x="142" y="694" type="line"/>
      <point x="145" y="700" type="line"/>
      <point x="148" y="705" type="line"/>
      <point x="151" y="711" type="line"/>
      <point x="154" y="716" type="line"/>
      <point x="157" y="719" type="line"/>
      <point x="163" y="725" type="line"/>
      <point x="168" y="729" type="line"/>
      <point x="173" y="734" type="line"/>
      <point x="179" y="738" type="line"/>
      <point x="186" y="741" type="line"/>
      <point x="194" y="745" type="line"/>
      <point x="202" y="748" type="line"/>
      <point x="212" y="751" type="line"/>
      <point x="222" y="754" type="line"/>
      <point x="233" y="757" type="line"/>
      <point x="246" y="758" type="line"/>
      <point x="260" y="760" type="line"/>
      <point x="275" y="761" type="line"/>
      <point x="291" y="761" type="line"/>
      <point x="490" y="761" type="line"/>
      <point x="490" y="761" type="line"/>
      <point x="497" y="761" type="line"/>
      <point x="503" y="761" type="line"/>
      <point x="510" y="761" type="line"/>
      <point x="517" y="761" type="line"/>
      <point x="524" y="760" type="line"/>
      <point x="531" y="760" type="line"/>
      <point x="538" y="759" type="line"/>
      <point x="545" y="759" type="line"/>
      <point x="552" y="758" type="line"/>
      <point x="558" y="756" type="line"/>
      <point x="565" y="755" type="line"/>
      <point x="571" y="753" type="line"/>
      <point x="577" y="751" type="line"/>
      <point x="583" y="749" type="line"/>
      <point x="589" y="746" type="line"/>
      <point x="594" y="743" type="line"/>
      <point x="600" y="740" type="line"/>
      <point x="605" y="737" type="line"/>
      <point x="608" y="734" type="line"/>
      <point x="614" y="728" type="line"/>
      <point x="618" y="723" type="line"/>
      <point x="623" y="718" type="line"/>
      <point x="627" y="712" type="line"/>
      <point x="630" y="705" type="line"/>
      <point x="634" y="697" type="line"/>
      <point x="637" y="689" type="line"/>
      <point x="640" y="679" type="line"/>
      <point x="643" y="669" type="line"/>
      <point x="646" y="658" type="line"/>
      <point x="647" y="645" type="line"/>
      <point x="649" y="631" type="line"/>
      <point x="650" y="616" type="line"/>
      <point x="650" y="600" type="line"/>
      <point x="650" y="594" type="line"/>
      <point x="650" y="588" type="line"/>
      <point x="650" y="581" type="line"/>
      <point x="650" y="574" type="line"/>
      <point x="649" y="567" type="line"/>
      <point x="649" y="560" type="line"/>
      <point x="648" y="553" type="line"/>
      <point x="648" y="546" type="line"/>
      <point x="647" y="539" type="line"/>
      <point x="645" y="533" type="line"/>
      <point x="644" y="526" type="line"/>
      <point x="642" y="520" type="line"/>
      <point x="640" y="514" type="line"/>
      <point x="638" y="508" type="line"/>
      <point x="635" y="502" type="line"/>
      <point x="632" y="497" type="line"/>
      <point x="629" y="491" type="line"/>
      <point x="626" y="486" type="line"/>
      <point x="623" y="483" type="line"/>
      <point x="617" y="477" type="line"/>
      <point x="612" y="473" type="line"/>
      <point x="607" y="468" type="line"/>
      <point x="601" y="464" type="line"/>
      <point x="594" y="461" type="line"/>
      <point x="586" y="457" type="line"/>
      <point x="578" y="454" type="line"/>
      <point x="568" y="451" type="line"/>
      <point x="558" y="448" type="line"/>
      <point x="547" y="445" type="line"/>
      <point x="534" y="444" type="line"/>
      <point x="520" y="442" type="line"/>
      <point x="505" y="441" type="line"/>
      <point x="490" y="441" type="line"/>
      <point x="300" y="441" type="line"/>
      <point x="300" y="361" type="line"/>
      <point x="490" y="361" type="line"/>
      <point x="507" y="361" type="line"/>
      <point x="522" y="360" type="line"/>
      <point x="536" y="358" type="line"/>
      <point x="549" y="356" type="line"/>
      <point x="560" y="354" type="line"/>
      <point x="571" y="351" type="line"/>
      <point x="580" y="347" type="line"/>
      <point x="589" y="344" type="line"/>
      <point x="596" y="340" type="line"/>
      <point x="603" y="336" type="line"/>
      <point x="609" y="332" type="line"/>
      <point x="615" y="327" type="line"/>
      <point x="619" y="323" type="line"/>
      <point x="622" y="320" type="line"/>
      <point x="627" y="313" type="line"/>
      <point x="631" y="308" type="line"/>
      <point x="634" y="303" type="line"/>
      <point x="636" y="298" type="line"/>
      <point x="639" y="292" type="line"/>
      <point x="641" y="286" type="line"/>
      <point x="643" y="280" type="line"/>
      <point x="644" y="274" type="line"/>
      <point x="646" y="268" type="line"/>
      <point x="647" y="261" type="line"/>
      <point x="648" y="255" type="line"/>
      <point x="649" y="248" type="line"/>
      <point x="649" y="241" type="line"/>
      <point x="649" y="234" type="line"/>
      <point x="650" y="227" type="line"/>
      <point x="650" y="221" type="line"/>
      <point x="650" y="214" type="line"/>
      <point x="650" y="207" type="line"/>
      <point x="650" y="201" type="line"/>
      <point x="650" y="184" type="line"/>
      <point x="649" y="169" type="line"/>
      <point x="647" y="155" type="line"/>
      <point x="645" y="142" type="line"/>
      <point x="643" y="131" type="line"/>
      <point x="640" y="120" type="line"/>
      <point x="636" y="111" type="line"/>
      <point x="633" y="102" type="line"/>
      <point x="629" y="95" type="line"/>
      <point x="625" y="88" type="line"/>
      <point x="621" y="82" type="line"/>
      <point x="616" y="76" type="line"/>
      <point x="612" y="72" type="line"/>
      <point x="609" y="69" type="line"/>
      <point x="602" y="64" type="line"/>
      <point x="597" y="60" type="line"/>
      <point x="592" y="57" type="line"/>
      <point x="587" y="55" type="line"/>
      <point x="581" y="52" type="line"/>
      <point x="575" y="50" type="line"/>
      <point x="569" y="48" type="line"/>
      <point x="563" y="47" type="line"/>
      <point x="557" y="45" type="line"/>
      <point x="550" y="44" type="line"/>
      <point x="544" y="43" type="line"/>
      <point x="537" y="42" type="line"/>
      <point x="530" y="42" type="line"/>
      <point x="523" y="42" type="line"/>
      <point x="516" y="41" type="line"/>
      <point x="510" y="41" type="line"/>
      <point x="503" y="41" type="line"/>
      <point x="496" y="41" type="line"/>
      <point x="290" y="41" type="line"/>
      <point x="273" y="41" type="line"/>
      <point x="258" y="42" type="line"/>
      <point x="244" y="44" type="line"/>
      <point x="231" y="46" type="line"/>
      <point x="220" y="48" type="line"/>
      <point x="209" y="51" type="line"/>
      <point x="200" y="55" type="line"/>
      <point x="191" y="58" type="line"/>
      <point x="184" y="62" type="line"/>
      <point x="177" y="66" type="line"/>
      <point x="171" y="70" type="line"/>
      <point x="165" y="75" type="line"/>
      <point x="161" y="79" type="line"/>
      <point x="158" y="82" type="line"/>
      <point x="153" y="89" type="line"/>
      <point x="149" y="94" type="line"/>
      <point x="146" y="99" type="line"/>
      <point x="144" y="104" type="line"/>
      <point x="141" y="110" type="line"/>
      <point x="139" y="116" type="line"/>
      <point x="137" y="122" type="line"/>
      <point x="136" y="128" type="line"/>
      <point x="134" y="134" type="line"/>
      <point x="133" y="141" type="line"/>
      <point x="132" y="147" type="line"/>
      <point x="131" y="154" type="line"/>
      <point x="131" y="161" type="line"/>
      <point x="131" y="168" type="line"/>
      <point x="130" y="175" type="line"/>
      <point x="130" y="181" type="line"/>
      <point x="130" y="188" type="line"/>
      <point x="130" y="195" type="line"/>
      <point x="130" y="201" type="line" smooth="yes"/>
      <point x="130" y="223"/>
      <point x="112" y="241"/>
      <point x="90" y="241" type="curve" smooth="yes"/>
      <point x="68" y="241"/>
      <point x="50" y="223"/>
      <point x="50" y="201" type="curve" smooth="yes"/>
      <point x="50" y="194" type="line"/>
      <point x="50" y="187" type="line"/>
      <point x="50" y="179" type="line"/>
      <point x="50" y="171" type="line"/>
      <point x="51" y="163" type="line"/>
      <point x="51" y="154" type="line"/>
      <point x="52" y="145" type="line"/>
      <point x="53" y="136" type="line"/>
      <point x="54" y="127" type="line"/>
      <point x="56" y="117" type="line"/>
      <point x="58" y="107" type="line"/>
      <point x="61" y="97" type="line"/>
      <point x="64" y="87" type="line"/>
      <point x="68" y="77" type="line"/>
      <point x="73" y="67" type="line"/>
      <point x="78" y="58" type="line"/>
      <point x="84" y="48" type="line"/>
      <point x="91" y="38" type="line"/>
      <point x="96" y="31" type="line" smooth="yes"/>
      <point x="97" y="31"/>
      <point x="98" y="30"/>
      <point x="98" y="29" type="curve" smooth="yes"/>
      <point x="107" y="20" type="line"/>
      <point x="116" y="12" type="line"/>
      <point x="126" y="4" type="line"/>
      <point x="137" y="-3" type="line"/>
      <point x="149" y="-10" type="line"/>
      <point x="161" y="-16" type="line"/>
      <point x="174" y="-21" type="line"/>
      <point x="188" y="-26" type="line"/>
      <point x="203" y="-30" type="line"/>
      <point x="219" y="-33" type="line"/>
      <point x="236" y="-36" type="line"/>
      <point x="253" y="-38" type="line"/>
      <point x="271" y="-39" type="line"/>
    </contour>
  </outline>
</glyph>
<glyph name="four" format="1">
  <advance width="774"/>
  <unicode hex="0034"/>
  <outline>
    <contour>
      <point x="684" y="-39" type="curve" smooth="yes"/>
      <point x="706" y="-39"/>
      <point x="724" y="-21"/>
      <point x="724" y="1" type="curve" smooth="yes"/>
      <point x="724" y="600" type="line" smooth="yes"/>
      <point x="724" y="622"/>
      <point x="706" y="640"/>
      <point x="684" y="640" type="curve" smooth="yes"/>
      <point x="662" y="640"/>
      <point x="644" y="622"/>
      <point x="644" y="600" type="curve" smooth="yes"/>
      <point x="644" y="300" type="line"/>
      <point x="640" y="303" type="line"/>
      <point x="628" y="310" type="line"/>
      <point x="615" y="316" type="line"/>
      <point x="602" y="321" type="line"/>
      <point x="588" y="326" type="line"/>
      <point x="573" y="330" type="line"/>
      <point x="557" y="334" type="line"/>
      <point x="540" y="336" type="line"/>
      <point x="523" y="338" type="line"/>
      <point x="504" y="340" type="line"/>
      <point x="485" y="340" type="line"/>
      <point x="155" y="340" type="line"/>
      <point x="413" y="771" type="line"/>
      <point x="418" y="779" type="line" smooth="yes"/>
      <point x="429" y="798"/>
      <point x="423" y="823"/>
      <point x="405" y="834" type="curve" smooth="yes"/>
      <point x="386" y="845"/>
      <point x="361" y="839"/>
      <point x="350" y="821" type="curve" smooth="yes"/>
      <point x="60" y="338" type="line"/>
      <point x="55" y="329" type="line" smooth="yes"/>
      <point x="48" y="318"/>
      <point x="48" y="300"/>
      <point x="54" y="289" type="curve" smooth="yes"/>
      <point x="59" y="280" type="line" smooth="yes"/>
      <point x="65" y="269"/>
      <point x="81" y="260"/>
      <point x="94" y="260" type="curve" smooth="yes"/>
      <point x="483" y="260" type="line"/>
      <point x="499" y="260" type="line"/>
      <point x="514" y="259" type="line"/>
      <point x="528" y="257" type="line"/>
      <point x="541" y="256" type="line"/>
      <point x="552" y="253" type="line"/>
      <point x="562" y="250" type="line"/>
      <point x="572" y="247" type="line"/>
      <point x="580" y="244" type="line"/>
      <point x="588" y="240" type="line"/>
      <point x="595" y="237" type="line"/>
      <point x="601" y="233" type="line"/>
      <point x="606" y="228" type="line"/>
      <point x="611" y="224" type="line"/>
      <point x="617" y="218" type="line"/>
      <point x="620" y="215" type="line"/>
      <point x="623" y="210" type="line"/>
      <point x="626" y="204" type="line"/>
      <point x="629" y="199" type="line"/>
      <point x="632" y="193" type="line"/>
      <point x="634" y="187" type="line"/>
      <point x="636" y="181" type="line"/>
      <point x="638" y="175" type="line"/>
      <point x="639" y="168" type="line"/>
      <point x="641" y="162" type="line"/>
      <point x="642" y="155" type="line"/>
      <point x="642" y="148" type="line"/>
      <point x="643" y="141" type="line"/>
      <point x="643" y="134" type="line"/>
      <point x="644" y="127" type="line"/>
      <point x="644" y="120" type="line"/>
      <point x="644" y="113" type="line"/>
      <point x="644" y="107" type="line"/>
      <point x="644" y="100" type="line" smooth="yes"/>
      <point x="644" y="1" type="line" smooth="yes"/>
      <point x="644" y="-21"/>
      <point x="662" y="-39"/>
    </contour>
  </outline>
</glyph>
<glyph name="five" format="1">
  <advance width="780"/>
  <unicode hex="0035"/>
  <outline>
    <contour>
      <point x="290" y="-39" type="curve" smooth="yes"/>
      <point x="497" y="-39" type="line"/>
      <point x="504" y="-39" type="line"/>
      <point x="511" y="-39" type="line"/>
      <point x="519" y="-39" type="line"/>
      <point x="527" y="-38" type="line"/>
      <point x="536" y="-38" type="line"/>
      <point x="545" y="-37" type="line"/>
      <point x="554" y="-36" type="line"/>
      <point x="563" y="-35" type="line"/>
      <point x="572" y="-33" type="line"/>
      <point x="582" y="-31" type="line"/>
      <point x="592" y="-29" type="line"/>
      <point x="602" y="-25" type="line"/>
      <point x="612" y="-22" type="line"/>
      <point x="621" y="-17" type="line"/>
      <point x="631" y="-12" type="line"/>
      <point x="641" y="-7" type="line"/>
      <point x="651" y="0" type="line"/>
      <point x="660" y="7" type="line" smooth="yes"/>
      <point x="660" y="8"/>
      <point x="661" y="9"/>
      <point x="662" y="9" type="curve" smooth="yes"/>
      <point x="669" y="15" type="line"/>
      <point x="677" y="25" type="line"/>
      <point x="685" y="35" type="line"/>
      <point x="693" y="45" type="line"/>
      <point x="700" y="57" type="line"/>
      <point x="706" y="70" type="line"/>
      <point x="711" y="83" type="line"/>
      <point x="716" y="97" type="line"/>
      <point x="720" y="112" type="line"/>
      <point x="724" y="128" type="line"/>
      <point x="726" y="145" type="line"/>
      <point x="728" y="162" type="line"/>
      <point x="730" y="181" type="line"/>
      <point x="730" y="200" type="line"/>
      <point x="730" y="208" type="line"/>
      <point x="730" y="215" type="line"/>
      <point x="730" y="222" type="line"/>
      <point x="730" y="230" type="line"/>
      <point x="729" y="238" type="line"/>
      <point x="729" y="247" type="line"/>
      <point x="728" y="256" type="line"/>
      <point x="727" y="265" type="line"/>
      <point x="726" y="274" type="line"/>
      <point x="724" y="283" type="line"/>
      <point x="722" y="293" type="line"/>
      <point x="720" y="303" type="line"/>
      <point x="716" y="313" type="line"/>
      <point x="713" y="323" type="line"/>
      <point x="708" y="332" type="line"/>
      <point x="703" y="342" type="line"/>
      <point x="698" y="352" type="line"/>
      <point x="691" y="362" type="line"/>
      <point x="684" y="371" type="line" smooth="yes"/>
      <point x="683" y="371"/>
      <point x="682" y="372"/>
      <point x="682" y="373" type="curve" smooth="yes"/>
      <point x="676" y="380" type="line"/>
      <point x="666" y="388" type="line"/>
      <point x="656" y="396" type="line"/>
      <point x="646" y="404" type="line"/>
      <point x="634" y="411" type="line"/>
      <point x="621" y="417" type="line"/>
      <point x="608" y="422" type="line"/>
      <point x="594" y="427" type="line"/>
      <point x="579" y="431" type="line"/>
      <point x="563" y="435" type="line"/>
      <point x="546" y="437" type="line"/>
      <point x="529" y="439" type="line"/>
      <point x="510" y="441" type="line"/>
      <point x="491" y="441" type="line"/>
      <point x="130" y="441" type="line"/>
      <point x="130" y="601" type="line"/>
      <point x="130" y="608" type="line"/>
      <point x="130" y="614" type="line"/>
      <point x="130" y="621" type="line"/>
      <point x="130" y="628" type="line"/>
      <point x="131" y="635" type="line"/>
      <point x="131" y="642" type="line"/>
      <point x="132" y="649" type="line"/>
      <point x="132" y="656" type="line"/>
      <point x="133" y="663" type="line"/>
      <point x="135" y="669" type="line"/>
      <point x="136" y="676" type="line"/>
      <point x="138" y="682" type="line"/>
      <point x="140" y="688" type="line"/>
      <point x="142" y="694" type="line"/>
      <point x="145" y="700" type="line"/>
      <point x="148" y="705" type="line"/>
      <point x="151" y="711" type="line"/>
      <point x="154" y="716" type="line"/>
      <point x="157" y="719" type="line"/>
      <point x="163" y="725" type="line"/>
      <point x="168" y="729" type="line"/>
      <point x="173" y="734" type="line"/>
      <point x="179" y="738" type="line"/>
      <point x="186" y="741" type="line"/>
      <point x="194" y="745" type="line"/>
      <point x="202" y="748" type="line"/>
      <point x="212" y="751" type="line"/>
      <point x="222" y="754" type="line"/>
      <point x="233" y="757" type="line"/>
      <point x="246" y="758" type="line"/>
      <point x="260" y="760" type="line"/>
      <point x="275" y="761" type="line"/>
      <point x="291" y="761" type="line"/>
      <point x="680" y="761" type="line"/>
      <point x="690" y="761" type="line" smooth="yes"/>
      <point x="712" y="761"/>
      <point x="730" y="779"/>
      <point x="730" y="801" type="curve" smooth="yes"/>
      <point x="730" y="823"/>
      <point x="712" y="841"/>
      <point x="690" y="841" type="curve" smooth="yes"/>
      <point x="289" y="841" type="line"/>
      <point x="270" y="841" type="line"/>
      <point x="251" y="839" type="line"/>
      <point x="234" y="837" type="line"/>
      <point x="217" y="835" type="line"/>
      <point x="201" y="831" type="line"/>
      <point x="186" y="827" type="line"/>
      <point x="172" y="822" type="line"/>
      <point x="159" y="817" type="line"/>
      <point x="146" y="811" type="line"/>
      <point x="134" y="804" type="line"/>
      <point x="124" y="796" type="line"/>
      <point x="114" y="788" type="line"/>
      <point x="104" y="780" type="line"/>
      <point x="98" y="773" type="line" smooth="yes"/>
      <point x="98" y="772"/>
      <point x="97" y="771"/>
      <point x="96" y="771" type="curve" smooth="yes"/>
      <point x="89" y="762" type="line"/>
      <point x="82" y="752" type="line"/>
      <point x="77" y="742" type="line"/>
      <point x="72" y="732" type="line"/>
      <point x="67" y="723" type="line"/>
      <point x="64" y="713" type="line"/>
      <point x="60" y="703" type="line"/>
      <point x="58" y="693" type="line"/>
      <point x="56" y="683" type="line"/>
      <point x="54" y="674" type="line"/>
      <point x="53" y="665" type="line"/>
      <point x="52" y="656" type="line"/>
      <point x="51" y="647" type="line"/>
      <point x="51" y="638" type="line"/>
      <point x="50" y="630" type="line"/>
      <point x="50" y="622" type="line"/>
      <point x="50" y="615" type="line"/>
      <point x="50" y="608" type="line"/>
      <point x="50" y="601" type="line"/>
      <point x="50" y="401" type="line" smooth="yes"/>
      <point x="50" y="379"/>
      <point x="68" y="361"/>
      <point x="90" y="361" type="curve" smooth="yes"/>
      <point x="489" y="361" type="line"/>
      <point x="505" y="361" type="line"/>
      <point x="520" y="360" type="line"/>
      <point x="534" y="358" type="line"/>
      <point x="547" y="357" type="line"/>
      <point x="558" y="354" type="line"/>
      <point x="568" y="351" type="line"/>
      <point x="578" y="348" type="line"/>
      <point x="586" y="345" type="line"/>
      <point x="594" y="341" type="line"/>
      <point x="601" y="338" type="line"/>
      <point x="607" y="334" type="line"/>
      <point x="612" y="329" type="line"/>
      <point x="617" y="325" type="line"/>
      <point x="623" y="319" type="line"/>
      <point x="626" y="316" type="line"/>
      <point x="629" y="311" type="line"/>
      <point x="632" y="305" type="line"/>
      <point x="635" y="300" type="line"/>
      <point x="638" y="294" type="line"/>
      <point x="640" y="288" type="line"/>
      <point x="642" y="282" type="line"/>
      <point x="644" y="276" type="line"/>
      <point x="645" y="269" type="line"/>
      <point x="647" y="263" type="line"/>
      <point x="648" y="256" type="line"/>
      <point x="648" y="249" type="line"/>
      <point x="649" y="242" type="line"/>
      <point x="649" y="235" type="line"/>
      <point x="650" y="228" type="line"/>
      <point x="650" y="221" type="line"/>
      <point x="650" y="214" type="line"/>
      <point x="650" y="208" type="line"/>
      <point x="650" y="202" type="line"/>
      <point x="650" y="186" type="line"/>
      <point x="649" y="171" type="line"/>
      <point x="647" y="157" type="line"/>
      <point x="646" y="144" type="line"/>
      <point x="643" y="133" type="line"/>
      <point x="640" y="123" type="line"/>
      <point x="637" y="113" type="line"/>
      <point x="634" y="105" type="line"/>
      <point x="630" y="97" type="line"/>
      <point x="627" y="90" type="line"/>
      <point x="623" y="84" type="line"/>
      <point x="618" y="79" type="line"/>
      <point x="614" y="74" type="line"/>
      <point x="608" y="68" type="line"/>
      <point x="605" y="65" type="line"/>
      <point x="600" y="62" type="line"/>
      <point x="594" y="59" type="line"/>
      <point x="589" y="56" type="line"/>
      <point x="583" y="53" type="line"/>
      <point x="577" y="51" type="line"/>
      <point x="571" y="49" type="line"/>
      <point x="565" y="47" type="line"/>
      <point x="558" y="46" type="line"/>
      <point x="552" y="44" type="line"/>
      <point x="545" y="43" type="line"/>
      <point x="538" y="43" type="line"/>
      <point x="531" y="42" type="line"/>
      <point x="524" y="42" type="line"/>
      <point x="517" y="41" type="line"/>
      <point x="510" y="41" type="line"/>
      <point x="503" y="41" type="line"/>
      <point x="497" y="41" type="line"/>
      <point x="290" y="41" type="line"/>
      <point x="275" y="41" type="line"/>
      <point x="260" y="42" type="line"/>
      <point x="246" y="44" type="line"/>
      <point x="233" y="45" type="line"/>
      <point x="222" y="48" type="line"/>
      <point x="212" y="51" type="line"/>
      <point x="202" y="54" type="line"/>
      <point x="194" y="57" type="line"/>
      <point x="186" y="61" type="line"/>
      <point x="179" y="64" type="line"/>
      <point x="173" y="68" type="line"/>
      <point x="168" y="73" type="line"/>
      <point x="163" y="77" type="line"/>
      <point x="157" y="83" type="line"/>
      <point x="154" y="86" type="line"/>
      <point x="151" y="91" type="line"/>
      <point x="148" y="97" type="line"/>
      <point x="145" y="102" type="line"/>
      <point x="142" y="108" type="line"/>
      <point x="140" y="114" type="line"/>
      <point x="138" y="120" type="line"/>
      <point x="136" y="126" type="line"/>
      <point x="135" y="133" type="line"/>
      <point x="133" y="139" type="line"/>
      <point x="132" y="146" type="line"/>
      <point x="132" y="153" type="line"/>
      <point x="131" y="160" type="line"/>
      <point x="131" y="167" type="line"/>
      <point x="130" y="174" type="line"/>
      <point x="130" y="181" type="line"/>
      <point x="130" y="188" type="line"/>
      <point x="130" y="194" type="line"/>
      <point x="130" y="201" type="line" smooth="yes"/>
      <point x="130" y="223"/>
      <point x="112" y="241"/>
      <point x="90" y="241" type="curve" smooth="yes"/>
      <point x="68" y="241"/>
      <point x="50" y="223"/>
      <point x="50" y="201" type="curve" smooth="yes"/>
      <point x="50" y="194" type="line"/>
      <point x="50" y="187" type="line"/>
      <point x="50" y="180" type="line"/>
      <point x="50" y="172" type="line"/>
      <point x="51" y="164" type="line"/>
      <point x="51" y="155" type="line"/>
      <point x="52" y="146" type="line"/>
      <point x="53" y="137" type="line"/>
      <point x="54" y="128" type="line"/>
      <point x="56" y="119" type="line"/>
      <point x="58" y="109" type="line"/>
      <point x="60" y="99" type="line"/>
      <point x="64" y="89" type="line"/>
      <point x="67" y="79" type="line"/>
      <point x="72" y="70" type="line"/>
      <point x="77" y="60" type="line"/>
      <point x="82" y="50" type="line"/>
      <point x="89" y="40" type="line"/>
      <point x="96" y="31" type="line" smooth="yes"/>
      <point x="97" y="31"/>
      <point x="98" y="30"/>
      <point x="98" y="29" type="curve" smooth="yes"/>
      <point x="104" y="22" type="line"/>
      <point x="114" y="14" type="line"/>
      <point x="124" y="6" type="line"/>
      <point x="134" y="-2" type="line"/>
      <point x="146" y="-9" type="line"/>
      <point x="159" y="-15" type="line"/>
      <point x="172" y="-20" type="line"/>
      <point x="186" y="-25" type="line"/>
      <point x="201" y="-29" type="line"/>
      <point x="217" y="-33" type="line"/>
      <point x="234" y="-35" type="line"/>
      <point x="251" y="-37" type="line"/>
      <point x="270" y="-39" type="line"/>
      <point x="289" y="-39" type="line" smooth="yes"/>
      <point x="289" y="-39"/>
      <point x="290" y="-39"/>
    </contour>
  </outline>
</glyph>
<glyph name="seven" format="1">
  <advance width="779"/>
  <unicode hex="0037"/>
  <outline>
    <contour>
      <point x="323" y="-25" type="curve" smooth="yes"/>
      <point x="717" y="567" type="line"/>
      <point x="722" y="575" type="line" smooth="yes"/>
      <point x="726" y="580"/>
      <point x="729" y="590"/>
      <point x="729" y="597" type="curve" smooth="yes"/>
      <point x="729" y="604" type="line"/>
      <point x="729" y="611" type="line"/>
      <point x="729" y="618" type="line"/>
      <point x="729" y="626" type="line"/>
      <point x="728" y="634" type="line"/>
      <point x="728" y="643" type="line"/>
      <point x="727" y="651" type="line"/>
      <point x="726" y="660" type="line"/>
      <point x="725" y="670" type="line"/>
      <point x="723" y="679" type="line"/>
      <point x="721" y="689" type="line"/>
      <point x="719" y="699" type="line"/>
      <point x="716" y="708" type="line"/>
      <point x="712" y="718" type="line"/>
      <point x="708" y="728" type="line"/>
      <point x="703" y="738" type="line"/>
      <point x="697" y="748" type="line"/>
      <point x="691" y="757" type="line"/>
      <point x="683" y="767" type="line" smooth="yes"/>
      <point x="683" y="767"/>
      <point x="682" y="768"/>
      <point x="681" y="769" type="curve" smooth="yes"/>
      <point x="675" y="776" type="line"/>
      <point x="666" y="784" type="line"/>
      <point x="656" y="792" type="line"/>
      <point x="645" y="800" type="line"/>
      <point x="633" y="807" type="line"/>
      <point x="621" y="813" type="line"/>
      <point x="607" y="818" type="line"/>
      <point x="593" y="823" type="line"/>
      <point x="578" y="827" type="line"/>
      <point x="562" y="831" type="line"/>
      <point x="546" y="833" type="line"/>
      <point x="528" y="835" type="line"/>
      <point x="509" y="837" type="line"/>
      <point x="490" y="837" type="line"/>
      <point x="100" y="837" type="line"/>
      <point x="90" y="837" type="line" smooth="yes"/>
      <point x="68" y="837"/>
      <point x="50" y="819"/>
      <point x="50" y="797" type="curve" smooth="yes"/>
      <point x="50" y="775"/>
      <point x="68" y="757"/>
      <point x="90" y="757" type="curve" smooth="yes"/>
      <point x="488" y="757" type="line"/>
      <point x="504" y="757" type="line"/>
      <point x="519" y="756" type="line"/>
      <point x="533" y="754" type="line"/>
      <point x="546" y="753" type="line"/>
      <point x="557" y="750" type="line"/>
      <point x="568" y="747" type="line"/>
      <point x="577" y="744" type="line"/>
      <point x="586" y="741" type="line"/>
      <point x="593" y="737" type="line"/>
      <point x="600" y="734" type="line"/>
      <point x="606" y="730" type="line"/>
      <point x="612" y="725" type="line"/>
      <point x="617" y="721" type="line"/>
      <point x="622" y="715" type="line"/>
      <point x="625" y="712" type="line"/>
      <point x="629" y="707" type="line"/>
      <point x="632" y="702" type="line"/>
      <point x="635" y="696" type="line"/>
      <point x="637" y="690" type="line"/>
      <point x="639" y="684" type="line"/>
      <point x="641" y="678" type="line"/>
      <point x="643" y="672" type="line"/>
      <point x="645" y="665" type="line"/>
      <point x="646" y="659" type="line"/>
      <point x="647" y="652" type="line"/>
      <point x="648" y="645" type="line"/>
      <point x="648" y="638" type="line"/>
      <point x="649" y="631" type="line"/>
      <point x="649" y="624" type="line"/>
      <point x="649" y="617" type="line"/>
      <point x="649" y="610" type="line"/>
      <point x="649" y="609" type="line"/>
      <point x="262" y="27" type="line"/>
      <point x="257" y="19" type="line" smooth="yes"/>
      <point x="245" y="1"/>
      <point x="250" y="-24"/>
      <point x="268" y="-36" type="curve" smooth="yes"/>
      <point x="286" y="-48"/>
      <point x="311" y="-43"/>
    </contour>
  </outline>
</glyph>
<glyph name="eight" format="1">
  <advance width="780"/>
  <unicode hex="0038"/>
  <outline>
    <contour>
      <point x="290" y="-40" type="line"/>
      <point x="497" y="-40" type="line"/>
      <point x="504" y="-40" type="line"/>
      <point x="512" y="-40" type="line"/>
      <point x="520" y="-40" type="line"/>
      <point x="528" y="-39" type="line"/>
      <point x="537" y="-39" type="line"/>
      <point x="546" y="-38" type="line"/>
      <point x="555" y="-37" type="line"/>
      <point x="564" y="-36" type="line"/>
      <point x="574" y="-34" type="line"/>
      <point x="584" y="-32" type="line"/>
      <point x="594" y="-29" type="line"/>
      <point x="604" y="-26" type="line"/>
      <point x="614" y="-22" type="line"/>
      <point x="624" y="-17" type="line"/>
      <point x="633" y="-12" type="line"/>
      <point x="643" y="-6" type="line"/>
      <point x="653" y="1" type="line"/>
      <point x="660" y="6" type="line" smooth="yes"/>
      <point x="660" y="7"/>
      <point x="661" y="8"/>
      <point x="662" y="8" type="curve" smooth="yes"/>
      <point x="671" y="17" type="line"/>
      <point x="679" y="26" type="line"/>
      <point x="687" y="36" type="line"/>
      <point x="694" y="47" type="line"/>
      <point x="701" y="59" type="line"/>
      <point x="707" y="71" type="line"/>
      <point x="712" y="84" type="line"/>
      <point x="717" y="98" type="line"/>
      <point x="721" y="113" type="line"/>
      <point x="724" y="129" type="line"/>
      <point x="727" y="146" type="line"/>
      <point x="729" y="163" type="line"/>
      <point x="730" y="181" type="line"/>
      <point x="730" y="200" type="line"/>
      <point x="730" y="207" type="line"/>
      <point x="730" y="214" type="line"/>
      <point x="730" y="222" type="line"/>
      <point x="730" y="230" type="line"/>
      <point x="729" y="238" type="line"/>
      <point x="729" y="247" type="line"/>
      <point x="728" y="256" type="line"/>
      <point x="727" y="265" type="line"/>
      <point x="726" y="274" type="line"/>
      <point x="724" y="284" type="line"/>
      <point x="722" y="294" type="line"/>
      <point x="719" y="304" type="line"/>
      <point x="716" y="314" type="line"/>
      <point x="712" y="324" type="line"/>
      <point x="707" y="334" type="line"/>
      <point x="702" y="343" type="line"/>
      <point x="696" y="353" type="line"/>
      <point x="689" y="363" type="line"/>
      <point x="684" y="370" type="line" smooth="yes"/>
      <point x="683" y="370"/>
      <point x="682" y="371"/>
      <point x="682" y="372" type="curve" smooth="yes"/>
      <point x="673" y="381" type="line"/>
      <point x="664" y="389" type="line"/>
      <point x="654" y="397" type="line"/>
      <point x="651" y="399" type="line"/>
      <point x="660" y="406" type="line" smooth="yes"/>
      <point x="660" y="407"/>
      <point x="661" y="408"/>
      <point x="662" y="408" type="curve" smooth="yes"/>
      <point x="669" y="414" type="line"/>
      <point x="677" y="424" type="line"/>
      <point x="685" y="434" type="line"/>
      <point x="693" y="444" type="line"/>
      <point x="700" y="456" type="line"/>
      <point x="706" y="469" type="line"/>
      <point x="711" y="482" type="line"/>
      <point x="716" y="496" type="line"/>
      <point x="720" y="511" type="line"/>
      <point x="724" y="527" type="line"/>
      <point x="726" y="544" type="line"/>
      <point x="728" y="561" type="line"/>
      <point x="730" y="580" type="line"/>
      <point x="730" y="599" type="line"/>
      <point x="730" y="607" type="line"/>
      <point x="730" y="614" type="line"/>
      <point x="730" y="621" type="line"/>
      <point x="730" y="629" type="line"/>
      <point x="729" y="637" type="line"/>
      <point x="729" y="646" type="line"/>
      <point x="728" y="655" type="line"/>
      <point x="727" y="664" type="line"/>
      <point x="726" y="673" type="line"/>
      <point x="724" y="682" type="line"/>
      <point x="722" y="692" type="line"/>
      <point x="720" y="702" type="line"/>
      <point x="716" y="712" type="line"/>
      <point x="713" y="722" type="line"/>
      <point x="708" y="731" type="line"/>
      <point x="703" y="741" type="line"/>
      <point x="698" y="751" type="line"/>
      <point x="691" y="761" type="line"/>
      <point x="684" y="770" type="line" smooth="yes"/>
      <point x="683" y="770"/>
      <point x="682" y="771"/>
      <point x="682" y="772" type="curve" smooth="yes"/>
      <point x="676" y="779" type="line"/>
      <point x="666" y="787" type="line"/>
      <point x="656" y="795" type="line"/>
      <point x="646" y="803" type="line"/>
      <point x="634" y="810" type="line"/>
      <point x="621" y="816" type="line"/>
      <point x="608" y="821" type="line"/>
      <point x="594" y="826" type="line"/>
      <point x="579" y="830" type="line"/>
      <point x="563" y="834" type="line"/>
      <point x="546" y="836" type="line"/>
      <point x="529" y="838" type="line"/>
      <point x="510" y="840" type="line"/>
      <point x="491" y="840" type="line"/>
      <point x="283" y="840" type="line"/>
      <point x="276" y="840" type="line"/>
      <point x="269" y="840" type="line"/>
      <point x="261" y="840" type="line"/>
      <point x="253" y="839" type="line"/>
      <point x="244" y="839" type="line"/>
      <point x="235" y="838" type="line"/>
      <point x="226" y="837" type="line"/>
      <point x="217" y="836" type="line"/>
      <point x="208" y="834" type="line"/>
      <point x="198" y="832" type="line"/>
      <point x="188" y="830" type="line"/>
      <point x="178" y="826" type="line"/>
      <point x="168" y="823" type="line"/>
      <point x="159" y="818" type="line"/>
      <point x="149" y="813" type="line"/>
      <point x="139" y="808" type="line"/>
      <point x="129" y="801" type="line"/>
      <point x="120" y="794" type="line" smooth="yes"/>
      <point x="120" y="793"/>
      <point x="119" y="792"/>
      <point x="118" y="792" type="curve" smooth="yes"/>
      <point x="111" y="786" type="line"/>
      <point x="103" y="776" type="line"/>
      <point x="95" y="766" type="line"/>
      <point x="87" y="756" type="line"/>
      <point x="80" y="744" type="line"/>
      <point x="74" y="731" type="line"/>
      <point x="69" y="718" type="line"/>
      <point x="64" y="704" type="line"/>
      <point x="60" y="689" type="line"/>
      <point x="56" y="673" type="line"/>
      <point x="54" y="656" type="line"/>
      <point x="52" y="639" type="line"/>
      <point x="50" y="620" type="line"/>
      <point x="50" y="601" type="line"/>
      <point x="50" y="593" type="line"/>
      <point x="50" y="586" type="line"/>
      <point x="50" y="579" type="line"/>
      <point x="50" y="571" type="line"/>
      <point x="51" y="563" type="line"/>
      <point x="51" y="554" type="line"/>
      <point x="52" y="545" type="line"/>
      <point x="53" y="536" type="line"/>
      <point x="54" y="527" type="line"/>
      <point x="56" y="518" type="line"/>
      <point x="58" y="508" type="line"/>
      <point x="60" y="498" type="line"/>
      <point x="64" y="488" type="line"/>
      <point x="67" y="478" type="line"/>
      <point x="72" y="469" type="line"/>
      <point x="77" y="459" type="line"/>
      <point x="82" y="449" type="line"/>
      <point x="89" y="439" type="line"/>
      <point x="96" y="430" type="line" smooth="yes"/>
      <point x="97" y="430"/>
      <point x="98" y="429"/>
      <point x="98" y="428" type="curve" smooth="yes"/>
      <point x="104" y="421" type="line"/>
      <point x="114" y="413" type="line"/>
      <point x="124" y="405" type="line"/>
      <point x="129" y="401" type="line"/>
      <point x="127" y="399" type="line"/>
      <point x="120" y="394" type="line" smooth="yes"/>
      <point x="120" y="393"/>
      <point x="119" y="392"/>
      <point x="118" y="392" type="curve" smooth="yes"/>
      <point x="109" y="383" type="line"/>
      <point x="101" y="374" type="line"/>
      <point x="93" y="364" type="line"/>
      <point x="86" y="353" type="line"/>
      <point x="79" y="341" type="line"/>
      <point x="73" y="329" type="line"/>
      <point x="68" y="316" type="line"/>
      <point x="63" y="302" type="line"/>
      <point x="59" y="287" type="line"/>
      <point x="56" y="271" type="line"/>
      <point x="53" y="254" type="line"/>
      <point x="51" y="237" type="line"/>
      <point x="50" y="219" type="line"/>
      <point x="50" y="200" type="line"/>
      <point x="50" y="193" type="line"/>
      <point x="50" y="186" type="line"/>
      <point x="50" y="178" type="line"/>
      <point x="50" y="170" type="line"/>
      <point x="51" y="162" type="line"/>
      <point x="51" y="153" type="line"/>
      <point x="52" y="144" type="line"/>
      <point x="53" y="135" type="line"/>
      <point x="54" y="126" type="line"/>
      <point x="56" y="116" type="line"/>
      <point x="58" y="106" type="line"/>
      <point x="61" y="96" type="line"/>
      <point x="64" y="86" type="line"/>
      <point x="68" y="76" type="line"/>
      <point x="73" y="66" type="line"/>
      <point x="78" y="57" type="line"/>
      <point x="84" y="47" type="line"/>
      <point x="91" y="37" type="line"/>
      <point x="96" y="30" type="line" smooth="yes"/>
      <point x="97" y="30"/>
      <point x="98" y="29"/>
      <point x="98" y="28" type="curve" smooth="yes"/>
      <point x="107" y="19" type="line"/>
      <point x="116" y="11" type="line"/>
      <point x="126" y="3" type="line"/>
      <point x="137" y="-4" type="line"/>
      <point x="149" y="-11" type="line"/>
      <point x="161" y="-17" type="line"/>
      <point x="174" y="-22" type="line"/>
      <point x="188" y="-27" type="line"/>
      <point x="203" y="-31" type="line"/>
      <point x="219" y="-34" type="line"/>
      <point x="236" y="-37" type="line"/>
      <point x="253" y="-39" type="line"/>
      <point x="271" y="-40" type="line"/>
    </contour>
    <contour>
      <point x="490" y="440" type="line" smooth="yes"/>
      <point x="290" y="440" type="line"/>
      <point x="275" y="440" type="line"/>
      <point x="260" y="441" type="line"/>
      <point x="246" y="443" type="line"/>
      <point x="233" y="444" type="line"/>
      <point x="222" y="447" type="line"/>
      <point x="212" y="450" type="line"/>
      <point x="202" y="453" type="line"/>
      <point x="194" y="456" type="line"/>
      <point x="186" y="460" type="line"/>
      <point x="179" y="463" type="line"/>
      <point x="173" y="467" type="line"/>
      <point x="168" y="472" type="line"/>
      <point x="163" y="476" type="line"/>
      <point x="157" y="482" type="line"/>
      <point x="154" y="485" type="line"/>
      <point x="151" y="490" type="line"/>
      <point x="148" y="496" type="line"/>
      <point x="145" y="501" type="line"/>
      <point x="142" y="507" type="line"/>
      <point x="140" y="513" type="line"/>
      <point x="138" y="519" type="line"/>
      <point x="136" y="525" type="line"/>
      <point x="135" y="532" type="line"/>
      <point x="133" y="538" type="line"/>
      <point x="132" y="545" type="line"/>
      <point x="132" y="552" type="line"/>
      <point x="131" y="559" type="line"/>
      <point x="131" y="566" type="line"/>
      <point x="130" y="573" type="line"/>
      <point x="130" y="580" type="line"/>
      <point x="130" y="587" type="line"/>
      <point x="130" y="593" type="line"/>
      <point x="130" y="599" type="line"/>
      <point x="130" y="615" type="line"/>
      <point x="131" y="630" type="line"/>
      <point x="133" y="644" type="line"/>
      <point x="134" y="657" type="line"/>
      <point x="137" y="668" type="line"/>
      <point x="140" y="678" type="line"/>
      <point x="143" y="688" type="line"/>
      <point x="146" y="696" type="line"/>
      <point x="150" y="704" type="line"/>
      <point x="153" y="711" type="line"/>
      <point x="157" y="717" type="line"/>
      <point x="162" y="722" type="line"/>
      <point x="166" y="727" type="line"/>
      <point x="172" y="733" type="line"/>
      <point x="175" y="736" type="line"/>
      <point x="180" y="739" type="line"/>
      <point x="186" y="742" type="line"/>
      <point x="191" y="745" type="line"/>
      <point x="197" y="748" type="line"/>
      <point x="203" y="750" type="line"/>
      <point x="209" y="752" type="line"/>
      <point x="215" y="754" type="line"/>
      <point x="222" y="755" type="line"/>
      <point x="228" y="757" type="line"/>
      <point x="235" y="758" type="line"/>
      <point x="242" y="758" type="line"/>
      <point x="249" y="759" type="line"/>
      <point x="256" y="759" type="line"/>
      <point x="263" y="760" type="line"/>
      <point x="270" y="760" type="line"/>
      <point x="277" y="760" type="line"/>
      <point x="283" y="760" type="line"/>
      <point x="489" y="760" type="line"/>
      <point x="505" y="760" type="line"/>
      <point x="520" y="759" type="line"/>
      <point x="534" y="757" type="line"/>
      <point x="547" y="756" type="line"/>
      <point x="558" y="753" type="line"/>
      <point x="568" y="750" type="line"/>
      <point x="578" y="747" type="line"/>
      <point x="586" y="744" type="line"/>
      <point x="594" y="740" type="line"/>
      <point x="601" y="737" type="line"/>
      <point x="607" y="733" type="line"/>
      <point x="612" y="728" type="line"/>
      <point x="617" y="724" type="line"/>
      <point x="623" y="718" type="line"/>
      <point x="626" y="715" type="line"/>
      <point x="629" y="710" type="line"/>
      <point x="632" y="704" type="line"/>
      <point x="635" y="699" type="line"/>
      <point x="638" y="693" type="line"/>
      <point x="640" y="687" type="line"/>
      <point x="642" y="681" type="line"/>
      <point x="644" y="675" type="line"/>
      <point x="645" y="668" type="line"/>
      <point x="647" y="662" type="line"/>
      <point x="648" y="655" type="line"/>
      <point x="648" y="648" type="line"/>
      <point x="649" y="641" type="line"/>
      <point x="649" y="634" type="line"/>
      <point x="650" y="627" type="line"/>
      <point x="650" y="620" type="line"/>
      <point x="650" y="613" type="line"/>
      <point x="650" y="607" type="line"/>
      <point x="650" y="601" type="line"/>
      <point x="650" y="585" type="line"/>
      <point x="649" y="570" type="line"/>
      <point x="647" y="556" type="line"/>
      <point x="646" y="543" type="line"/>
      <point x="643" y="532" type="line"/>
      <point x="640" y="522" type="line"/>
      <point x="637" y="512" type="line"/>
      <point x="634" y="504" type="line"/>
      <point x="630" y="496" type="line"/>
      <point x="627" y="489" type="line"/>
      <point x="623" y="483" type="line"/>
      <point x="618" y="478" type="line"/>
      <point x="614" y="473" type="line"/>
      <point x="608" y="467" type="line"/>
      <point x="605" y="464" type="line"/>
      <point x="600" y="461" type="line"/>
      <point x="594" y="458" type="line"/>
      <point x="589" y="455" type="line"/>
      <point x="583" y="452" type="line"/>
      <point x="577" y="450" type="line"/>
      <point x="571" y="448" type="line"/>
      <point x="565" y="446" type="line"/>
      <point x="558" y="445" type="line"/>
      <point x="552" y="443" type="line"/>
      <point x="545" y="442" type="line"/>
      <point x="538" y="442" type="line"/>
      <point x="531" y="441" type="line"/>
      <point x="524" y="441" type="line"/>
      <point x="517" y="440" type="line"/>
      <point x="510" y="440" type="line"/>
      <point x="503" y="440" type="line"/>
      <point x="497" y="440" type="line"/>
    </contour>
    <contour>
      <point x="496" y="40" type="line"/>
      <point x="290" y="40" type="line"/>
      <point x="273" y="40" type="line"/>
      <point x="258" y="41" type="line"/>
      <point x="244" y="43" type="line"/>
      <point x="231" y="45" type="line"/>
      <point x="220" y="47" type="line"/>
      <point x="209" y="50" type="line"/>
      <point x="200" y="54" type="line"/>
      <point x="191" y="57" type="line"/>
      <point x="184" y="61" type="line"/>
      <point x="177" y="65" type="line"/>
      <point x="171" y="69" type="line"/>
      <point x="165" y="74" type="line"/>
      <point x="161" y="78" type="line"/>
      <point x="158" y="81" type="line"/>
      <point x="153" y="88" type="line"/>
      <point x="149" y="93" type="line"/>
      <point x="146" y="98" type="line"/>
      <point x="144" y="103" type="line"/>
      <point x="141" y="109" type="line"/>
      <point x="139" y="115" type="line"/>
      <point x="137" y="121" type="line"/>
      <point x="136" y="127" type="line"/>
      <point x="134" y="133" type="line"/>
      <point x="133" y="140" type="line"/>
      <point x="132" y="146" type="line"/>
      <point x="131" y="153" type="line"/>
      <point x="131" y="160" type="line"/>
      <point x="131" y="167" type="line"/>
      <point x="130" y="174" type="line"/>
      <point x="130" y="180" type="line"/>
      <point x="130" y="187" type="line"/>
      <point x="130" y="194" type="line"/>
      <point x="130" y="200" type="line"/>
      <point x="130" y="217" type="line"/>
      <point x="131" y="232" type="line"/>
      <point x="133" y="246" type="line"/>
      <point x="135" y="259" type="line"/>
      <point x="137" y="270" type="line"/>
      <point x="140" y="281" type="line"/>
      <point x="144" y="290" type="line"/>
      <point x="147" y="299" type="line"/>
      <point x="151" y="306" type="line"/>
      <point x="155" y="313" type="line"/>
      <point x="159" y="319" type="line"/>
      <point x="164" y="325" type="line"/>
      <point x="168" y="329" type="line"/>
      <point x="171" y="332" type="line"/>
      <point x="178" y="337" type="line"/>
      <point x="183" y="341" type="line"/>
      <point x="188" y="344" type="line"/>
      <point x="193" y="346" type="line"/>
      <point x="199" y="349" type="line"/>
      <point x="205" y="351" type="line"/>
      <point x="211" y="353" type="line"/>
      <point x="217" y="354" type="line"/>
      <point x="223" y="356" type="line"/>
      <point x="230" y="357" type="line"/>
      <point x="236" y="358" type="line"/>
      <point x="243" y="359" type="line"/>
      <point x="250" y="359" type="line"/>
      <point x="257" y="359" type="line"/>
      <point x="264" y="360" type="line"/>
      <point x="270" y="360" type="line"/>
      <point x="277" y="360" type="line"/>
      <point x="284" y="360" type="line"/>
      <point x="290" y="360" type="line"/>
      <point x="290" y="360" type="line" smooth="yes"/>
      <point x="490" y="360" type="line"/>
      <point x="507" y="360" type="line"/>
      <point x="522" y="359" type="line"/>
      <point x="536" y="357" type="line"/>
      <point x="549" y="355" type="line"/>
      <point x="560" y="353" type="line"/>
      <point x="571" y="350" type="line"/>
      <point x="580" y="346" type="line"/>
      <point x="589" y="343" type="line"/>
      <point x="596" y="339" type="line"/>
      <point x="603" y="335" type="line"/>
      <point x="609" y="331" type="line"/>
      <point x="615" y="326" type="line"/>
      <point x="619" y="322" type="line"/>
      <point x="622" y="319" type="line"/>
      <point x="627" y="312" type="line"/>
      <point x="631" y="307" type="line"/>
      <point x="634" y="302" type="line"/>
      <point x="636" y="297" type="line"/>
      <point x="639" y="291" type="line"/>
      <point x="641" y="285" type="line"/>
      <point x="643" y="279" type="line"/>
      <point x="644" y="273" type="line"/>
      <point x="646" y="267" type="line"/>
      <point x="647" y="260" type="line"/>
      <point x="648" y="254" type="line"/>
      <point x="649" y="247" type="line"/>
      <point x="649" y="240" type="line"/>
      <point x="649" y="233" type="line"/>
      <point x="650" y="226" type="line"/>
      <point x="650" y="220" type="line"/>
      <point x="650" y="213" type="line"/>
      <point x="650" y="206" type="line"/>
      <point x="650" y="200" type="line"/>
      <point x="650" y="183" type="line"/>
      <point x="649" y="168" type="line"/>
      <point x="647" y="154" type="line"/>
      <point x="645" y="141" type="line"/>
      <point x="643" y="130" type="line"/>
      <point x="640" y="119" type="line"/>
      <point x="636" y="110" type="line"/>
      <point x="633" y="101" type="line"/>
      <point x="629" y="94" type="line"/>
      <point x="625" y="87" type="line"/>
      <point x="621" y="81" type="line"/>
      <point x="616" y="75" type="line"/>
      <point x="612" y="71" type="line"/>
      <point x="609" y="68" type="line"/>
      <point x="602" y="63" type="line"/>
      <point x="597" y="59" type="line"/>
      <point x="592" y="56" type="line"/>
      <point x="587" y="54" type="line"/>
      <point x="581" y="51" type="line"/>
      <point x="575" y="49" type="line"/>
      <point x="569" y="47" type="line"/>
      <point x="563" y="46" type="line"/>
      <point x="557" y="44" type="line"/>
      <point x="550" y="43" type="line"/>
      <point x="544" y="42" type="line"/>
      <point x="537" y="41" type="line"/>
      <point x="530" y="41" type="line"/>
      <point x="523" y="41" type="line"/>
      <point x="516" y="40" type="line"/>
      <point x="510" y="40" type="line"/>
      <point x="503" y="40" type="line"/>
    </contour>
  </outline>
</glyph>
<glyph name="nine" format="1">
  <advance width="780"/>
  <unicode hex="0039"/>
  <outline>
    <contour>
      <point x="646" y="403" type="line"/>
      <point x="634" y="410" type="line"/>
      <point x="621" y="416" type="line"/>
      <point x="608" y="421" type="line"/>
      <point x="594" y="426" type="line"/>
      <point x="579" y="430" type="line"/>
      <point x="563" y="434" type="line"/>
      <point x="546" y="436" type="line"/>
      <point x="529" y="438" type="line"/>
      <point x="510" y="440" type="line"/>
      <point x="491" y="440" type="line"/>
      <point x="290" y="440" type="line"/>
      <point x="273" y="440" type="line"/>
      <point x="258" y="441" type="line"/>
      <point x="244" y="443" type="line"/>
      <point x="231" y="445" type="line"/>
      <point x="220" y="447" type="line"/>
      <point x="209" y="450" type="line"/>
      <point x="200" y="454" type="line"/>
      <point x="191" y="457" type="line"/>
      <point x="184" y="461" type="line"/>
      <point x="177" y="465" type="line"/>
      <point x="171" y="469" type="line"/>
      <point x="165" y="474" type="line"/>
      <point x="161" y="478" type="line"/>
      <point x="158" y="481" type="line"/>
      <point x="153" y="488" type="line"/>
      <point x="149" y="493" type="line"/>
      <point x="146" y="498" type="line"/>
      <point x="144" y="503" type="line"/>
      <point x="141" y="509" type="line"/>
      <point x="139" y="515" type="line"/>
      <point x="137" y="521" type="line"/>
      <point x="136" y="527" type="line"/>
      <point x="134" y="533" type="line"/>
      <point x="133" y="540" type="line"/>
      <point x="132" y="546" type="line"/>
      <point x="131" y="553" type="line"/>
      <point x="131" y="560" type="line"/>
      <point x="131" y="567" type="line"/>
      <point x="130" y="574" type="line"/>
      <point x="130" y="580" type="line"/>
      <point x="130" y="587" type="line"/>
      <point x="130" y="594" type="line"/>
      <point x="130" y="600" type="line"/>
      <point x="130" y="617" type="line"/>
      <point x="131" y="632" type="line"/>
      <point x="133" y="646" type="line"/>
      <point x="135" y="659" type="line"/>
      <point x="137" y="670" type="line"/>
      <point x="140" y="681" type="line"/>
      <point x="144" y="690" type="line"/>
      <point x="147" y="699" type="line"/>
      <point x="151" y="706" type="line"/>
      <point x="155" y="713" type="line"/>
      <point x="159" y="719" type="line"/>
      <point x="164" y="725" type="line"/>
      <point x="168" y="729" type="line"/>
      <point x="171" y="732" type="line"/>
      <point x="178" y="737" type="line"/>
      <point x="183" y="741" type="line"/>
      <point x="188" y="744" type="line"/>
      <point x="193" y="746" type="line"/>
      <point x="199" y="749" type="line"/>
      <point x="205" y="751" type="line"/>
      <point x="211" y="753" type="line"/>
      <point x="217" y="754" type="line"/>
      <point x="223" y="756" type="line"/>
      <point x="230" y="757" type="line"/>
      <point x="236" y="758" type="line"/>
      <point x="243" y="759" type="line"/>
      <point x="250" y="759" type="line"/>
      <point x="257" y="759" type="line"/>
      <point x="264" y="760" type="line"/>
      <point x="270" y="760" type="line"/>
      <point x="277" y="760" type="line"/>
      <point x="284" y="760" type="line"/>
      <point x="490" y="760" type="line"/>
      <point x="507" y="760" type="line"/>
      <point x="522" y="759" type="line"/>
      <point x="536" y="757" type="line"/>
      <point x="549" y="755" type="line"/>
      <point x="560" y="753" type="line"/>
      <point x="571" y="750" type="line"/>
      <point x="580" y="746" type="line"/>
      <point x="589" y="743" type="line"/>
      <point x="596" y="739" type="line"/>
      <point x="603" y="735" type="line"/>
      <point x="609" y="731" type="line"/>
      <point x="615" y="726" type="line"/>
      <point x="619" y="722" type="line"/>
      <point x="622" y="719" type="line"/>
      <point x="627" y="712" type="line"/>
      <point x="631" y="707" type="line"/>
      <point x="634" y="702" type="line"/>
      <point x="636" y="697" type="line"/>
      <point x="639" y="691" type="line"/>
      <point x="641" y="685" type="line"/>
      <point x="643" y="679" type="line"/>
      <point x="644" y="673" type="line"/>
      <point x="646" y="667" type="line"/>
      <point x="647" y="660" type="line"/>
      <point x="648" y="654" type="line"/>
      <point x="649" y="647" type="line"/>
      <point x="649" y="640" type="line"/>
      <point x="649" y="633" type="line"/>
      <point x="650" y="626" type="line"/>
      <point x="650" y="620" type="line"/>
      <point x="650" y="613" type="line"/>
      <point x="650" y="606" type="line"/>
      <point x="650" y="600" type="line"/>
      <point x="650" y="400" type="line"/>
    </contour>
    <contour>
      <point x="283" y="-40" type="line"/>
      <point x="491" y="-40" type="line"/>
      <point x="510" y="-40" type="line"/>
      <point x="529" y="-38" type="line"/>
      <point x="546" y="-36" type="line"/>
      <point x="563" y="-34" type="line"/>
      <point x="579" y="-30" type="line"/>
      <point x="594" y="-26" type="line"/>
      <point x="608" y="-21" type="line"/>
      <point x="621" y="-16" type="line"/>
      <point x="634" y="-10" type="line"/>
      <point x="646" y="-3" type="line"/>
      <point x="656" y="5" type="line"/>
      <point x="666" y="13" type="line"/>
      <point x="676" y="21" type="line"/>
      <point x="682" y="28" type="line" smooth="yes"/>
      <point x="682" y="29"/>
      <point x="683" y="30"/>
      <point x="684" y="30" type="curve" smooth="yes"/>
      <point x="691" y="39" type="line"/>
      <point x="698" y="49" type="line"/>
      <point x="703" y="59" type="line"/>
      <point x="708" y="69" type="line"/>
      <point x="713" y="78" type="line"/>
      <point x="716" y="88" type="line"/>
      <point x="720" y="98" type="line"/>
      <point x="722" y="108" type="line"/>
      <point x="724" y="118" type="line"/>
      <point x="726" y="127" type="line"/>
      <point x="727" y="136" type="line"/>
      <point x="728" y="145" type="line"/>
      <point x="729" y="154" type="line"/>
      <point x="729" y="163" type="line"/>
      <point x="730" y="171" type="line"/>
      <point x="730" y="179" type="line"/>
      <point x="730" y="186" type="line"/>
      <point x="730" y="193" type="line"/>
      <point x="730" y="200" type="line"/>
      <point x="730" y="600" type="line"/>
      <point x="730" y="607" type="line"/>
      <point x="730" y="614" type="line"/>
      <point x="730" y="622" type="line"/>
      <point x="730" y="630" type="line"/>
      <point x="729" y="638" type="line"/>
      <point x="729" y="647" type="line"/>
      <point x="728" y="656" type="line"/>
      <point x="727" y="665" type="line"/>
      <point x="726" y="674" type="line"/>
      <point x="724" y="684" type="line"/>
      <point x="722" y="694" type="line"/>
      <point x="719" y="704" type="line"/>
      <point x="716" y="714" type="line"/>
      <point x="712" y="724" type="line"/>
      <point x="707" y="734" type="line"/>
      <point x="702" y="743" type="line"/>
      <point x="696" y="753" type="line"/>
      <point x="689" y="763" type="line"/>
      <point x="684" y="770" type="line" smooth="yes"/>
      <point x="683" y="770"/>
      <point x="682" y="771"/>
      <point x="682" y="772" type="curve" smooth="yes"/>
      <point x="673" y="781" type="line"/>
      <point x="664" y="789" type="line"/>
      <point x="654" y="797" type="line"/>
      <point x="643" y="804" type="line"/>
      <point x="631" y="811" type="line"/>
      <point x="619" y="817" type="line"/>
      <point x="606" y="822" type="line"/>
      <point x="592" y="827" type="line"/>
      <point x="577" y="831" type="line"/>
      <point x="561" y="834" type="line"/>
      <point x="544" y="837" type="line"/>
      <point x="527" y="839" type="line"/>
      <point x="509" y="840" type="line"/>
      <point x="491" y="840" type="line" smooth="yes"/>
      <point x="491" y="840"/>
      <point x="490" y="840"/>
      <point x="490" y="840" type="curve" smooth="yes"/>
      <point x="283" y="840" type="line"/>
      <point x="276" y="840" type="line"/>
      <point x="268" y="840" type="line"/>
      <point x="260" y="840" type="line"/>
      <point x="252" y="839" type="line"/>
      <point x="243" y="839" type="line"/>
      <point x="234" y="838" type="line"/>
      <point x="225" y="837" type="line"/>
      <point x="216" y="836" type="line"/>
      <point x="206" y="834" type="line"/>
      <point x="196" y="832" type="line"/>
      <point x="186" y="829" type="line"/>
      <point x="176" y="826" type="line"/>
      <point x="166" y="822" type="line"/>
      <point x="156" y="817" type="line"/>
      <point x="147" y="812" type="line"/>
      <point x="137" y="806" type="line"/>
      <point x="127" y="799" type="line"/>
      <point x="120" y="794" type="line" smooth="yes"/>
      <point x="120" y="793"/>
      <point x="119" y="792"/>
      <point x="118" y="792" type="curve" smooth="yes"/>
      <point x="109" y="783" type="line"/>
      <point x="101" y="774" type="line"/>
      <point x="93" y="764" type="line"/>
      <point x="86" y="753" type="line"/>
      <point x="79" y="741" type="line"/>
      <point x="73" y="729" type="line"/>
      <point x="68" y="716" type="line"/>
      <point x="63" y="702" type="line"/>
      <point x="59" y="687" type="line"/>
      <point x="56" y="671" type="line"/>
      <point x="53" y="654" type="line"/>
      <point x="51" y="637" type="line"/>
      <point x="50" y="619" type="line"/>
      <point x="50" y="600" type="line"/>
      <point x="50" y="593" type="line"/>
      <point x="50" y="586" type="line"/>
      <point x="50" y="578" type="line"/>
      <point x="50" y="570" type="line"/>
      <point x="51" y="562" type="line"/>
      <point x="51" y="553" type="line"/>
      <point x="52" y="544" type="line"/>
      <point x="53" y="535" type="line"/>
      <point x="54" y="526" type="line"/>
      <point x="56" y="516" type="line"/>
      <point x="58" y="506" type="line"/>
      <point x="61" y="496" type="line"/>
      <point x="64" y="486" type="line"/>
      <point x="68" y="476" type="line"/>
      <point x="73" y="466" type="line"/>
      <point x="78" y="457" type="line"/>
      <point x="84" y="447" type="line"/>
      <point x="91" y="437" type="line"/>
      <point x="96" y="430" type="line" smooth="yes"/>
      <point x="97" y="430"/>
      <point x="98" y="429"/>
      <point x="98" y="428" type="curve" smooth="yes"/>
      <point x="107" y="419" type="line"/>
      <point x="116" y="411" type="line"/>
      <point x="126" y="403" type="line"/>
      <point x="137" y="396" type="line"/>
      <point x="149" y="389" type="line"/>
      <point x="161" y="383" type="line"/>
      <point x="174" y="378" type="line"/>
      <point x="188" y="373" type="line"/>
      <point x="203" y="369" type="line"/>
      <point x="219" y="366" type="line"/>
      <point x="236" y="363" type="line"/>
      <point x="253" y="361" type="line"/>
      <point x="271" y="360" type="line"/>
      <point x="290" y="360" type="line"/>
      <point x="489" y="360" type="line"/>
      <point x="505" y="360" type="line"/>
      <point x="520" y="359" type="line"/>
      <point x="534" y="357" type="line"/>
      <point x="547" y="356" type="line"/>
      <point x="558" y="353" type="line"/>
      <point x="568" y="350" type="line"/>
      <point x="578" y="347" type="line"/>
      <point x="586" y="344" type="line"/>
      <point x="594" y="340" type="line"/>
      <point x="601" y="337" type="line"/>
      <point x="607" y="333" type="line"/>
      <point x="612" y="328" type="line"/>
      <point x="617" y="324" type="line"/>
      <point x="623" y="318" type="line"/>
      <point x="626" y="315" type="line"/>
      <point x="629" y="310" type="line"/>
      <point x="632" y="304" type="line"/>
      <point x="635" y="299" type="line"/>
      <point x="638" y="293" type="line"/>
      <point x="640" y="287" type="line"/>
      <point x="642" y="281" type="line"/>
      <point x="644" y="275" type="line"/>
      <point x="645" y="268" type="line"/>
      <point x="647" y="262" type="line"/>
      <point x="648" y="255" type="line"/>
      <point x="648" y="248" type="line"/>
      <point x="649" y="241" type="line"/>
      <point x="649" y="234" type="line"/>
      <point x="650" y="227" type="line"/>
      <point x="650" y="220" type="line"/>
      <point x="650" y="213" type="line"/>
      <point x="650" y="207" type="line"/>
      <point x="650" y="200" type="line" smooth="yes"/>
      <point x="650" y="193" type="line"/>
      <point x="650" y="187" type="line"/>
      <point x="650" y="180" type="line"/>
      <point x="650" y="173" type="line"/>
      <point x="649" y="166" type="line"/>
      <point x="649" y="159" type="line"/>
      <point x="648" y="152" type="line"/>
      <point x="648" y="145" type="line"/>
      <point x="647" y="138" type="line"/>
      <point x="645" y="132" type="line"/>
      <point x="644" y="125" type="line"/>
      <point x="642" y="119" type="line"/>
      <point x="640" y="113" type="line"/>
      <point x="638" y="107" type="line"/>
      <point x="635" y="101" type="line"/>
      <point x="632" y="96" type="line"/>
      <point x="629" y="90" type="line"/>
      <point x="626" y="85" type="line"/>
      <point x="623" y="82" type="line"/>
      <point x="617" y="76" type="line"/>
      <point x="612" y="72" type="line"/>
      <point x="607" y="67" type="line"/>
      <point x="601" y="63" type="line"/>
      <point x="594" y="60" type="line"/>
      <point x="586" y="56" type="line"/>
      <point x="578" y="53" type="line"/>
      <point x="568" y="50" type="line"/>
      <point x="558" y="47" type="line"/>
      <point x="547" y="44" type="line"/>
      <point x="534" y="43" type="line"/>
      <point x="520" y="41" type="line"/>
      <point x="505" y="40" type="line"/>
      <point x="489" y="40" type="line"/>
      <point x="283" y="40" type="line"/>
      <point x="277" y="40" type="line"/>
      <point x="270" y="40" type="line"/>
      <point x="263" y="40" type="line"/>
      <point x="256" y="41" type="line"/>
      <point x="249" y="41" type="line"/>
      <point x="242" y="42" type="line"/>
      <point x="235" y="42" type="line"/>
      <point x="228" y="43" type="line"/>
      <point x="222" y="45" type="line"/>
      <point x="215" y="46" type="line"/>
      <point x="209" y="48" type="line"/>
      <point x="203" y="50" type="line"/>
      <point x="197" y="52" type="line"/>
      <point x="191" y="55" type="line"/>
      <point x="186" y="58" type="line"/>
      <point x="180" y="61" type="line"/>
      <point x="175" y="64" type="line"/>
      <point x="172" y="67" type="line"/>
      <point x="166" y="73" type="line"/>
      <point x="162" y="78" type="line"/>
      <point x="157" y="83" type="line"/>
      <point x="153" y="89" type="line"/>
      <point x="150" y="96" type="line"/>
      <point x="146" y="104" type="line"/>
      <point x="143" y="112" type="line"/>
      <point x="140" y="122" type="line"/>
      <point x="137" y="132" type="line"/>
      <point x="134" y="143" type="line"/>
      <point x="133" y="156" type="line"/>
      <point x="131" y="170" type="line"/>
      <point x="130" y="185" type="line"/>
      <point x="130" y="201" type="line" smooth="yes"/>
      <point x="130" y="222"/>
      <point x="111" y="240"/>
      <point x="89" y="240" type="curve" smooth="yes"/>
      <point x="68" y="240"/>
      <point x="50" y="221"/>
      <point x="50" y="199" type="curve" smooth="yes"/>
      <point x="50" y="180" type="line"/>
      <point x="52" y="161" type="line"/>
      <point x="54" y="144" type="line"/>
      <point x="56" y="127" type="line"/>
      <point x="60" y="111" type="line"/>
      <point x="64" y="96" type="line"/>
      <point x="69" y="82" type="line"/>
      <point x="74" y="69" type="line"/>
      <point x="80" y="56" type="line"/>
      <point x="87" y="44" type="line"/>
      <point x="95" y="34" type="line"/>
      <point x="103" y="24" type="line"/>
      <point x="111" y="14" type="line"/>
      <point x="118" y="8" type="line" smooth="yes"/>
      <point x="119" y="8"/>
      <point x="120" y="7"/>
      <point x="120" y="6" type="curve" smooth="yes"/>
      <point x="129" y="-1" type="line"/>
      <point x="139" y="-8" type="line"/>
      <point x="149" y="-13" type="line"/>
      <point x="159" y="-18" type="line"/>
      <point x="168" y="-23" type="line"/>
      <point x="178" y="-26" type="line"/>
      <point x="188" y="-30" type="line"/>
      <point x="198" y="-32" type="line"/>
      <point x="208" y="-34" type="line"/>
      <point x="217" y="-36" type="line"/>
      <point x="226" y="-37" type="line"/>
      <point x="235" y="-38" type="line"/>
      <point x="244" y="-39" type="line"/>
      <point x="253" y="-39" type="line"/>
      <point x="261" y="-40" type="line"/>
      <point x="269" y="-40" type="line"/>
      <point x="276" y="-40" type="line"/>
    </contour>
  </outline>
</glyph>
<glyph name="semicolon" format="1">
  <advance width="280"/>
  <unicode hex="003B"/>
  <outline>
    <contour>
      <point x="190" y="543" type="curve" smooth="yes"/>
      <point x="212" y="543"/>
      <point x="230" y="561"/>
      <point x="230" y="583" type="curve" smooth="yes"/>
      <point x="230" y="592" type="line" smooth="yes"/>
      <point x="230" y="614"/>
      <point x="212" y="632"/>
      <point x="190" y="632" type="curve" smooth="yes"/>
      <point x="168" y="632"/>
      <point x="150" y="614"/>
      <point x="150" y="592" type="curve" smooth="yes"/>
      <point x="150" y="583" type="line" smooth="yes"/>
      <point x="150" y="561"/>
      <point x="168" y="543"/>
    </contour>
    <contour>
      <point x="90" y="-48" type="curve" smooth="yes"/>
      <point x="190" y="-48" type="line" smooth="yes"/>
      <point x="212" y="-48"/>
      <point x="230" y="-30"/>
      <point x="230" y="-8" type="curve" smooth="yes"/>
      <point x="230" y="192" type="line" smooth="yes"/>
      <point x="230" y="214"/>
      <point x="212" y="232"/>
      <point x="190" y="232" type="curve" smooth="yes"/>
      <point x="168" y="232"/>
      <point x="150" y="214"/>
      <point x="150" y="192" type="curve" smooth="yes"/>
      <point x="150" y="32" type="line"/>
      <point x="90" y="32" type="line" smooth="yes"/>
      <point x="68" y="32"/>
      <point x="50" y="14"/>
      <point x="50" y="-8" type="curve" smooth="yes"/>
      <point x="50" y="-30"/>
      <point x="68" y="-48"/>
    </contour>
  </outline>
</glyph>
<glyph name="less" format="1">
  <advance width="571"/>
  <unicode hex="003C"/>
  <outline>
    <contour>
      <point x="517" y="85" type="curve" smooth="yes"/>
      <point x="526" y="104"/>
      <point x="518" y="129"/>
      <point x="499" y="139" type="curve" smooth="yes"/>
      <point x="170" y="303" type="line"/>
      <point x="490" y="463" type="line"/>
      <point x="499" y="467" type="line" smooth="yes"/>
      <point x="518" y="477"/>
      <point x="526" y="502"/>
      <point x="517" y="521" type="curve" smooth="yes"/>
      <point x="507" y="540"/>
      <point x="482" y="548"/>
      <point x="463" y="539" type="curve" smooth="yes"/>
      <point x="81" y="348" type="line"/>
      <point x="72" y="343" type="line" smooth="yes"/>
      <point x="60" y="337"/>
      <point x="50" y="321"/>
      <point x="50" y="307" type="curve" smooth="yes"/>
      <point x="50" y="299" type="line" smooth="yes"/>
      <point x="50" y="285"/>
      <point x="60" y="269"/>
      <point x="72" y="263" type="curve" smooth="yes"/>
      <point x="454" y="72" type="line"/>
      <point x="463" y="67" type="line" smooth="yes"/>
      <point x="482" y="58"/>
      <point x="507" y="66"/>
    </contour>
  </outline>
</glyph>
<glyph name="greater" format="1">
  <advance width="571"/>
  <unicode hex="003E"/>
  <outline>
    <contour>
      <point x="108" y="84" type="curve" smooth="yes"/>
      <point x="490" y="275" type="line"/>
      <point x="499" y="280" type="line" smooth="yes"/>
      <point x="511" y="286"/>
      <point x="521" y="302"/>
      <point x="521" y="316" type="curve"/>
      <point x="521" y="324" type="line"/>
      <point x="521" y="338"/>
      <point x="511" y="354"/>
      <point x="499" y="360" type="curve" smooth="yes"/>
      <point x="117" y="551" type="line"/>
      <point x="108" y="556" type="line" smooth="yes"/>
      <point x="89" y="565"/>
      <point x="64" y="557"/>
      <point x="54" y="538" type="curve" smooth="yes"/>
      <point x="45" y="519"/>
      <point x="53" y="494"/>
      <point x="72" y="484" type="curve" smooth="yes"/>
      <point x="401" y="320" type="line"/>
      <point x="81" y="160" type="line"/>
      <point x="72" y="156" type="line" smooth="yes"/>
      <point x="53" y="146"/>
      <point x="45" y="121"/>
      <point x="54" y="102" type="curve" smooth="yes"/>
      <point x="64" y="83"/>
      <point x="89" y="75"/>
    </contour>
  </outline>
</glyph>
<glyph name="question" format="1">
  <advance width="679"/>
  <unicode hex="003F"/>
  <outline>
    <contour>
      <point x="289" y="160" type="curve" smooth="yes"/>
      <point x="311" y="160"/>
      <point x="329" y="178"/>
      <point x="329" y="200" type="curve" smooth="yes"/>
      <point x="329" y="359" type="line"/>
      <point x="396" y="359" type="line"/>
      <point x="403" y="359" type="line"/>
      <point x="410" y="359" type="line"/>
      <point x="418" y="359" type="line"/>
      <point x="426" y="360" type="line"/>
      <point x="435" y="360" type="line"/>
      <point x="444" y="361" type="line"/>
      <point x="453" y="362" type="line"/>
      <point x="462" y="363" type="line"/>
      <point x="472" y="365" type="line"/>
      <point x="481" y="367" type="line"/>
      <point x="491" y="370" type="line"/>
      <point x="501" y="373" type="line"/>
      <point x="511" y="377" type="line"/>
      <point x="521" y="381" type="line"/>
      <point x="530" y="386" type="line"/>
      <point x="540" y="392" type="line"/>
      <point x="550" y="399" type="line"/>
      <point x="559" y="406" type="line"/>
      <point x="568" y="414" type="line"/>
      <point x="576" y="423" type="line"/>
      <point x="584" y="433" type="line"/>
      <point x="592" y="444" type="line" smooth="yes"/>
      <point x="592" y="445"/>
      <point x="593" y="446"/>
      <point x="593" y="447" type="curve" smooth="yes"/>
      <point x="599" y="456" type="line"/>
      <point x="605" y="468" type="line"/>
      <point x="610" y="482" type="line"/>
      <point x="615" y="496" type="line"/>
      <point x="619" y="511" type="line"/>
      <point x="623" y="527" type="line"/>
      <point x="625" y="544" type="line"/>
      <point x="627" y="561" type="line"/>
      <point x="629" y="580" type="line"/>
      <point x="629" y="599" type="line"/>
      <point x="629" y="607" type="line"/>
      <point x="629" y="614" type="line"/>
      <point x="629" y="621" type="line"/>
      <point x="629" y="629" type="line"/>
      <point x="628" y="637" type="line"/>
      <point x="628" y="646" type="line"/>
      <point x="627" y="655" type="line"/>
      <point x="626" y="664" type="line"/>
      <point x="624" y="673" type="line"/>
      <point x="623" y="683" type="line"/>
      <point x="621" y="692" type="line"/>
      <point x="618" y="702" type="line"/>
      <point x="615" y="712" type="line"/>
      <point x="611" y="722" type="line"/>
      <point x="606" y="732" type="line"/>
      <point x="601" y="742" type="line"/>
      <point x="595" y="751" type="line"/>
      <point x="589" y="761" type="line"/>
      <point x="581" y="770" type="line"/>
      <point x="573" y="779" type="line"/>
      <point x="564" y="787" type="line"/>
      <point x="554" y="795" type="line" smooth="yes"/>
      <point x="553" y="796"/>
      <point x="552" y="797"/>
      <point x="551" y="797" type="curve" smooth="yes"/>
      <point x="543" y="803" type="line"/>
      <point x="531" y="810" type="line"/>
      <point x="519" y="816" type="line"/>
      <point x="505" y="821" type="line"/>
      <point x="491" y="826" type="line"/>
      <point x="476" y="830" type="line"/>
      <point x="460" y="834" type="line"/>
      <point x="443" y="836" type="line"/>
      <point x="426" y="838" type="line"/>
      <point x="407" y="840" type="line"/>
      <point x="388" y="840" type="line"/>
      <point x="288" y="840" type="line"/>
      <point x="278" y="840" type="line"/>
      <point x="266" y="839" type="line"/>
      <point x="259" y="838" type="line"/>
      <point x="251" y="837" type="line"/>
      <point x="243" y="835" type="line"/>
      <point x="234" y="833" type="line"/>
      <point x="225" y="831" type="line"/>
      <point x="215" y="828" type="line"/>
      <point x="204" y="825" type="line"/>
      <point x="194" y="821" type="line"/>
      <point x="183" y="817" type="line"/>
      <point x="172" y="812" type="line"/>
      <point x="161" y="806" type="line"/>
      <point x="150" y="799" type="line"/>
      <point x="139" y="792" type="line"/>
      <point x="128" y="783" type="line"/>
      <point x="117" y="774" type="line"/>
      <point x="107" y="763" type="line"/>
      <point x="97" y="752" type="line"/>
      <point x="88" y="739" type="line" smooth="yes"/>
      <point x="88" y="739"/>
      <point x="87" y="737"/>
      <point x="87" y="737" type="curve" smooth="yes"/>
      <point x="80" y="726" type="line"/>
      <point x="72" y="711" type="line"/>
      <point x="66" y="695" type="line" smooth="yes"/>
      <point x="66" y="694"/>
      <point x="65" y="693"/>
      <point x="65" y="692" type="curve" smooth="yes"/>
      <point x="60" y="678" type="line"/>
      <point x="56" y="660" type="line"/>
      <point x="53" y="641" type="line"/>
      <point x="51" y="621" type="line"/>
      <point x="50" y="600" type="line" smooth="yes"/>
      <point x="49" y="579"/>
      <point x="67" y="560"/>
      <point x="89" y="559" type="curve" smooth="yes"/>
      <point x="110" y="558"/>
      <point x="129" y="576"/>
      <point x="130" y="598" type="curve" smooth="yes"/>
      <point x="130" y="614" type="line"/>
      <point x="132" y="628" type="line"/>
      <point x="134" y="642" type="line"/>
      <point x="137" y="654" type="line"/>
      <point x="141" y="667" type="line"/>
      <point x="144" y="675" type="line"/>
      <point x="149" y="684" type="line"/>
      <point x="155" y="694" type="line"/>
      <point x="159" y="701" type="line"/>
      <point x="165" y="708" type="line"/>
      <point x="171" y="714" type="line"/>
      <point x="177" y="720" type="line"/>
      <point x="184" y="726" type="line"/>
      <point x="191" y="731" type="line"/>
      <point x="199" y="735" type="line"/>
      <point x="206" y="739" type="line"/>
      <point x="214" y="743" type="line"/>
      <point x="221" y="746" type="line"/>
      <point x="229" y="749" type="line"/>
      <point x="236" y="751" type="line"/>
      <point x="243" y="753" type="line"/>
      <point x="250" y="755" type="line"/>
      <point x="257" y="756" type="line"/>
      <point x="263" y="758" type="line"/>
      <point x="269" y="758" type="line"/>
      <point x="273" y="759" type="line"/>
      <point x="281" y="760" type="line"/>
      <point x="288" y="760" type="line"/>
      <point x="386" y="760" type="line"/>
      <point x="402" y="760" type="line"/>
      <point x="417" y="759" type="line"/>
      <point x="431" y="757" type="line"/>
      <point x="444" y="756" type="line"/>
      <point x="455" y="753" type="line"/>
      <point x="466" y="750" type="line"/>
      <point x="475" y="747" type="line"/>
      <point x="484" y="744" type="line"/>
      <point x="491" y="740" type="line"/>
      <point x="498" y="736" type="line"/>
      <point x="506" y="731" type="line"/>
      <point x="510" y="728" type="line"/>
      <point x="515" y="724" type="line"/>
      <point x="520" y="719" type="line"/>
      <point x="524" y="714" type="line"/>
      <point x="527" y="709" type="line"/>
      <point x="531" y="704" type="line"/>
      <point x="534" y="699" type="line"/>
      <point x="536" y="693" type="line"/>
      <point x="539" y="687" type="line"/>
      <point x="541" y="681" type="line"/>
      <point x="543" y="674" type="line"/>
      <point x="544" y="668" type="line"/>
      <point x="545" y="661" type="line"/>
      <point x="546" y="654" type="line"/>
      <point x="547" y="648" type="line"/>
      <point x="548" y="641" type="line"/>
      <point x="548" y="634" type="line"/>
      <point x="549" y="627" type="line"/>
      <point x="549" y="620" type="line"/>
      <point x="549" y="613" type="line"/>
      <point x="549" y="607" type="line"/>
      <point x="549" y="601" type="line"/>
      <point x="549" y="585" type="line"/>
      <point x="548" y="570" type="line"/>
      <point x="546" y="556" type="line"/>
      <point x="545" y="543" type="line"/>
      <point x="542" y="532" type="line"/>
      <point x="539" y="521" type="line"/>
      <point x="536" y="512" type="line"/>
      <point x="533" y="503" type="line"/>
      <point x="529" y="496" type="line"/>
      <point x="525" y="487" type="line"/>
      <point x="522" y="483" type="line"/>
      <point x="517" y="477" type="line"/>
      <point x="513" y="472" type="line"/>
      <point x="508" y="468" type="line"/>
      <point x="504" y="464" type="line"/>
      <point x="499" y="460" type="line"/>
      <point x="493" y="457" type="line"/>
      <point x="488" y="454" type="line"/>
      <point x="482" y="451" type="line"/>
      <point x="476" y="449" type="line"/>
      <point x="470" y="447" type="line"/>
      <point x="464" y="445" type="line"/>
      <point x="457" y="444" type="line"/>
      <point x="450" y="442" type="line"/>
      <point x="444" y="441" type="line"/>
      <point x="437" y="441" type="line"/>
      <point x="430" y="440" type="line"/>
      <point x="423" y="440" type="line"/>
      <point x="416" y="439" type="line"/>
      <point x="409" y="439" type="line"/>
      <point x="402" y="439" type="line"/>
      <point x="396" y="439" type="line"/>
      <point x="299" y="439" type="line"/>
      <point x="289" y="439" type="line" smooth="yes"/>
      <point x="267" y="439"/>
      <point x="249" y="421"/>
      <point x="249" y="399" type="curve" smooth="yes"/>
      <point x="249" y="200" type="line" smooth="yes"/>
      <point x="249" y="178"/>
      <point x="267" y="160"/>
    </contour>
    <contour>
      <point x="289" y="-40" type="curve" smooth="yes"/>
      <point x="311" y="-40"/>
      <point x="329" y="-22"/>
      <point x="329" y="0" type="curve" smooth="yes"/>
      <point x="329" y="11" type="line" smooth="yes"/>
      <point x="329" y="33"/>
      <point x="311" y="51"/>
      <point x="289" y="51" type="curve" smooth="yes"/>
      <point x="267" y="51"/>
      <point x="249" y="33"/>
      <point x="249" y="11" type="curve" smooth="yes"/>
      <point x="249" y="0" type="line" smooth="yes"/>
      <point x="249" y="-22"/>
      <point x="267" y="-40"/>
    </contour>
  </outline>
</glyph>
<glyph name="at" format="1">
  <advance width="780"/>
  <unicode hex="0040"/>
  <outline>
    <contour>
      <point x="292" y="-82" type="line"/>
      <point x="490" y="-82" type="line" smooth="yes"/>
      <point x="512" y="-82"/>
      <point x="530" y="-64"/>
      <point x="530" y="-42" type="curve" smooth="yes"/>
      <point x="530" y="-20"/>
      <point x="512" y="-2"/>
      <point x="490" y="-2" type="curve" smooth="yes"/>
      <point x="292" y="-2" type="line"/>
      <point x="275" y="-2" type="line"/>
      <point x="260" y="-1" type="line"/>
      <point x="246" y="1" type="line"/>
      <point x="233" y="3" type="line"/>
      <point x="222" y="5" type="line"/>
      <point x="211" y="8" type="line"/>
      <point x="201" y="12" type="line"/>
      <point x="193" y="15" type="line"/>
      <point x="185" y="19" type="line"/>
      <point x="178" y="23" type="line"/>
      <point x="174" y="26" type="line"/>
      <point x="167" y="32" type="line"/>
      <point x="162" y="36" type="line"/>
      <point x="158" y="41" type="line"/>
      <point x="154" y="46" type="line"/>
      <point x="150" y="51" type="line"/>
      <point x="147" y="56" type="line"/>
      <point x="144" y="62" type="line"/>
      <point x="142" y="67" type="line"/>
      <point x="140" y="73" type="line"/>
      <point x="138" y="79" type="line"/>
      <point x="136" y="85" type="line"/>
      <point x="135" y="92" type="line"/>
      <point x="133" y="98" type="line"/>
      <point x="132" y="105" type="line"/>
      <point x="132" y="112" type="line"/>
      <point x="131" y="118" type="line"/>
      <point x="131" y="125" type="line"/>
      <point x="130" y="132" type="line"/>
      <point x="130" y="138" type="line"/>
      <point x="130" y="145" type="line"/>
      <point x="130" y="152" type="line"/>
      <point x="130" y="158" type="line"/>
      <point x="130" y="168" type="line"/>
      <point x="130" y="562" type="line"/>
      <point x="130" y="569" type="line"/>
      <point x="130" y="576" type="line"/>
      <point x="130" y="582" type="line"/>
      <point x="130" y="589" type="line"/>
      <point x="130" y="596" type="line"/>
      <point x="130" y="602" type="line"/>
      <point x="131" y="609" type="line"/>
      <point x="132" y="616" type="line"/>
      <point x="132" y="622" type="line"/>
      <point x="134" y="629" type="line"/>
      <point x="135" y="635" type="line"/>
      <point x="137" y="641" type="line"/>
      <point x="138" y="647" type="line"/>
      <point x="141" y="653" type="line"/>
      <point x="143" y="659" type="line"/>
      <point x="146" y="664" type="line"/>
      <point x="149" y="669" type="line"/>
      <point x="151" y="672" type="line"/>
      <point x="156" y="678" type="line"/>
      <point x="161" y="683" type="line"/>
      <point x="166" y="687" type="line"/>
      <point x="169" y="690" type="line"/>
      <point x="177" y="695" type="line"/>
      <point x="184" y="699" type="line"/>
      <point x="191" y="702" type="line"/>
      <point x="200" y="706" type="line"/>
      <point x="209" y="709" type="line"/>
      <point x="220" y="711" type="line"/>
      <point x="231" y="714" type="line"/>
      <point x="244" y="715" type="line"/>
      <point x="258" y="717" type="line"/>
      <point x="273" y="718" type="line"/>
      <point x="289" y="718" type="line"/>
      <point x="488" y="718" type="line"/>
      <point x="505" y="718" type="line"/>
      <point x="520" y="717" type="line"/>
      <point x="534" y="715" type="line"/>
      <point x="547" y="713" type="line"/>
      <point x="558" y="711" type="line"/>
      <point x="569" y="708" type="line"/>
      <point x="579" y="704" type="line"/>
      <point x="587" y="701" type="line"/>
      <point x="595" y="697" type="line"/>
      <point x="602" y="693" type="line"/>
      <point x="606" y="690" type="line"/>
      <point x="613" y="684" type="line"/>
      <point x="618" y="680" type="line"/>
      <point x="622" y="675" type="line"/>
      <point x="626" y="670" type="line"/>
      <point x="630" y="665" type="line"/>
      <point x="633" y="660" type="line"/>
      <point x="636" y="654" type="line"/>
      <point x="638" y="649" type="line"/>
      <point x="640" y="643" type="line"/>
      <point x="642" y="637" type="line"/>
      <point x="644" y="631" type="line"/>
      <point x="645" y="624" type="line"/>
      <point x="647" y="618" type="line"/>
      <point x="648" y="611" type="line"/>
      <point x="648" y="604" type="line"/>
      <point x="649" y="598" type="line"/>
      <point x="649" y="591" type="line"/>
      <point x="650" y="584" type="line"/>
      <point x="650" y="578" type="line"/>
      <point x="650" y="571" type="line"/>
      <point x="650" y="564" type="line"/>
      <point x="650" y="558" type="line"/>
      <point x="650" y="548" type="line"/>
      <point x="650" y="359" type="line"/>
      <point x="650" y="342" type="line"/>
      <point x="649" y="327" type="line"/>
      <point x="647" y="313" type="line"/>
      <point x="645" y="300" type="line"/>
      <point x="643" y="289" type="line"/>
      <point x="640" y="278" type="line"/>
      <point x="636" y="269" type="line"/>
      <point x="633" y="260" type="line"/>
      <point x="629" y="252" type="line"/>
      <point x="626" y="247" type="line"/>
      <point x="621" y="240" type="line"/>
      <point x="616" y="234" type="line"/>
      <point x="612" y="229" type="line"/>
      <point x="607" y="225" type="line"/>
      <point x="602" y="221" type="line"/>
      <point x="597" y="218" type="line"/>
      <point x="592" y="215" type="line"/>
      <point x="587" y="212" type="line"/>
      <point x="581" y="210" type="line"/>
      <point x="575" y="207" type="line"/>
      <point x="569" y="205" type="line"/>
      <point x="563" y="204" type="line"/>
      <point x="557" y="202" type="line"/>
      <point x="550" y="201" type="line"/>
      <point x="543" y="200" type="line"/>
      <point x="537" y="200" type="line"/>
      <point x="530" y="199" type="line"/>
      <point x="530" y="558" type="line" smooth="yes"/>
      <point x="530" y="558" type="line"/>
      <point x="530" y="558" type="line" smooth="yes"/>
      <point x="530" y="560" type="line"/>
      <point x="530" y="559"/>
      <point x="530" y="561"/>
      <point x="530" y="562" type="curve"/>
      <point x="530" y="561"/>
      <point x="530" y="563"/>
      <point x="529" y="565" type="curve"/>
      <point x="529" y="566"/>
      <point x="529" y="567"/>
      <point x="529" y="568" type="curve"/>
      <point x="528" y="569"/>
      <point x="528" y="570"/>
      <point x="528" y="571" type="curve"/>
      <point x="528" y="572"/>
      <point x="527" y="572"/>
      <point x="527" y="573" type="curve"/>
      <point x="527" y="574"/>
      <point x="526" y="575"/>
      <point x="526" y="576" type="curve"/>
      <point x="525" y="576"/>
      <point x="525" y="577"/>
      <point x="525" y="577" type="curve"/>
      <point x="524" y="578"/>
      <point x="524" y="579"/>
      <point x="523" y="580" type="curve"/>
      <point x="523" y="581"/>
      <point x="522" y="581"/>
      <point x="522" y="582" type="curve"/>
      <point x="521" y="583"/>
      <point x="521" y="583"/>
      <point x="520" y="584" type="curve"/>
      <point x="520" y="585"/>
      <point x="519" y="585"/>
      <point x="518" y="586" type="curve"/>
      <point x="518" y="586"/>
      <point x="517" y="587"/>
      <point x="517" y="587" type="curve"/>
      <point x="516" y="588"/>
      <point x="515" y="589"/>
      <point x="515" y="589" type="curve"/>
      <point x="514" y="590"/>
      <point x="513" y="590"/>
      <point x="513" y="591" type="curve"/>
      <point x="512" y="591"/>
      <point x="511" y="592"/>
      <point x="510" y="592" type="curve"/>
      <point x="510" y="593"/>
      <point x="509" y="593"/>
      <point x="508" y="593" type="curve"/>
      <point x="507" y="594"/>
      <point x="506" y="594"/>
      <point x="506" y="595" type="curve"/>
      <point x="505" y="595"/>
      <point x="504" y="595"/>
      <point x="504" y="595" type="curve"/>
      <point x="503" y="596"/>
      <point x="502" y="596"/>
      <point x="501" y="596" type="curve"/>
      <point x="500" y="597"/>
      <point x="499" y="597"/>
      <point x="499" y="597" type="curve"/>
      <point x="492" y="598"/>
      <point x="494" y="598"/>
      <point x="495" y="598" type="curve"/>
      <point x="491" y="598"/>
      <point x="492" y="598"/>
      <point x="493" y="598" type="curve"/>
      <point x="490" y="598" type="line" smooth="yes"/>
      <point x="490" y="598" type="line"/>
      <point x="490" y="598" type="line" smooth="yes"/>
      <point x="483" y="598" type="line"/>
      <point x="476" y="598" type="line"/>
      <point x="468" y="598" type="line"/>
      <point x="460" y="598" type="line"/>
      <point x="452" y="597" type="line"/>
      <point x="443" y="597" type="line"/>
      <point x="434" y="596" type="line"/>
      <point x="425" y="595" type="line"/>
      <point x="416" y="594" type="line"/>
      <point x="406" y="592" type="line"/>
      <point x="396" y="590" type="line"/>
      <point x="386" y="587" type="line"/>
      <point x="376" y="584" type="line"/>
      <point x="366" y="580" type="line"/>
      <point x="356" y="575" type="line"/>
      <point x="347" y="570" type="line"/>
      <point x="337" y="564" type="line"/>
      <point x="327" y="557" type="line"/>
      <point x="320" y="552" type="line" smooth="yes"/>
      <point x="320" y="551"/>
      <point x="319" y="550"/>
      <point x="318" y="550" type="curve" smooth="yes"/>
      <point x="309" y="541" type="line"/>
      <point x="301" y="532" type="line"/>
      <point x="293" y="522" type="line"/>
      <point x="286" y="511" type="line"/>
      <point x="279" y="499" type="line"/>
      <point x="273" y="487" type="line"/>
      <point x="268" y="474" type="line"/>
      <point x="263" y="460" type="line"/>
      <point x="259" y="445" type="line"/>
      <point x="256" y="429" type="line"/>
      <point x="253" y="412" type="line"/>
      <point x="251" y="395" type="line"/>
      <point x="250" y="377" type="line"/>
      <point x="250" y="357" type="line"/>
      <point x="250" y="346" type="line"/>
      <point x="251" y="335" type="line"/>
      <point x="252" y="328" type="line"/>
      <point x="253" y="320" type="line"/>
      <point x="255" y="311" type="line"/>
      <point x="257" y="302" type="line"/>
      <point x="259" y="293" type="line"/>
      <point x="262" y="283" type="line"/>
      <point x="265" y="272" type="line"/>
      <point x="269" y="262" type="line"/>
      <point x="274" y="251" type="line"/>
      <point x="279" y="239" type="line"/>
      <point x="285" y="228" type="line"/>
      <point x="292" y="217" type="line"/>
      <point x="299" y="206" type="line"/>
      <point x="308" y="195" type="line"/>
      <point x="318" y="184" type="line"/>
      <point x="328" y="174" type="line"/>
      <point x="338" y="166" type="line" smooth="yes"/>
      <point x="338" y="165"/>
      <point x="339" y="165"/>
      <point x="340" y="164" type="curve" smooth="yes"/>
      <point x="353" y="155" type="line"/>
      <point x="364" y="148" type="line" smooth="yes"/>
      <point x="364" y="148"/>
      <point x="366" y="147"/>
      <point x="366" y="147" type="curve" smooth="yes"/>
      <point x="381" y="139" type="line"/>
      <point x="394" y="134" type="line" smooth="yes"/>
      <point x="395" y="134"/>
      <point x="396" y="133"/>
      <point x="397" y="133" type="curve" smooth="yes"/>
      <point x="414" y="128" type="line"/>
      <point x="432" y="123" type="line"/>
      <point x="451" y="120" type="line"/>
      <point x="470" y="119" type="line"/>
      <point x="490" y="118" type="line"/>
      <point x="490" y="118" type="line" smooth="yes"/>
      <point x="490" y="118" type="line"/>
      <point x="490" y="118" type="line"/>
      <point x="497" y="118" type="line"/>
      <point x="504" y="118" type="line"/>
      <point x="512" y="118" type="line"/>
      <point x="520" y="118" type="line"/>
      <point x="528" y="119" type="line"/>
      <point x="537" y="119" type="line"/>
      <point x="546" y="120" type="line"/>
      <point x="555" y="121" type="line"/>
      <point x="564" y="123" type="line"/>
      <point x="574" y="124" type="line"/>
      <point x="584" y="127" type="line"/>
      <point x="594" y="129" type="line"/>
      <point x="604" y="133" type="line"/>
      <point x="614" y="137" type="line"/>
      <point x="624" y="141" type="line"/>
      <point x="634" y="146" type="line"/>
      <point x="643" y="152" type="line"/>
      <point x="653" y="159" type="line"/>
      <point x="662" y="167" type="line"/>
      <point x="671" y="175" type="line"/>
      <point x="679" y="185" type="line"/>
      <point x="687" y="195" type="line"/>
      <point x="693" y="203" type="line" smooth="yes"/>
      <point x="693" y="204"/>
      <point x="694" y="205"/>
      <point x="694" y="206" type="curve" smooth="yes"/>
      <point x="701" y="217" type="line"/>
      <point x="707" y="230" type="line"/>
      <point x="712" y="243" type="line"/>
      <point x="717" y="257" type="line"/>
      <point x="721" y="272" type="line"/>
      <point x="724" y="288" type="line"/>
      <point x="727" y="305" type="line"/>
      <point x="729" y="322" type="line"/>
      <point x="730" y="340" type="line"/>
      <point x="730" y="359" type="line"/>
      <point x="730" y="548" type="line"/>
      <point x="730" y="558" type="line"/>
      <point x="730" y="565" type="line"/>
      <point x="730" y="572" type="line"/>
      <point x="730" y="580" type="line"/>
      <point x="730" y="588" type="line"/>
      <point x="729" y="596" type="line"/>
      <point x="729" y="605" type="line"/>
      <point x="728" y="614" type="line"/>
      <point x="727" y="623" type="line"/>
      <point x="725" y="633" type="line"/>
      <point x="723" y="642" type="line"/>
      <point x="721" y="652" type="line"/>
      <point x="718" y="662" type="line"/>
      <point x="715" y="672" type="line"/>
      <point x="711" y="682" type="line"/>
      <point x="706" y="692" type="line"/>
      <point x="701" y="702" type="line"/>
      <point x="695" y="712" type="line"/>
      <point x="688" y="721" type="line"/>
      <point x="680" y="730" type="line"/>
      <point x="672" y="739" type="line"/>
      <point x="663" y="747" type="line"/>
      <point x="655" y="753" type="line" smooth="yes"/>
      <point x="654" y="754"/>
      <point x="653" y="755"/>
      <point x="652" y="755" type="curve" smooth="yes"/>
      <point x="642" y="762" type="line"/>
      <point x="630" y="769" type="line"/>
      <point x="617" y="775" type="line"/>
      <point x="604" y="780" type="line"/>
      <point x="590" y="785" type="line"/>
      <point x="575" y="789" type="line"/>
      <point x="559" y="792" type="line"/>
      <point x="542" y="795" type="line"/>
      <point x="525" y="797" type="line"/>
      <point x="507" y="798" type="line"/>
      <point x="489" y="798" type="line" smooth="yes"/>
      <point x="489" y="798"/>
      <point x="488" y="798"/>
      <point x="488" y="798" type="curve" smooth="yes"/>
      <point x="287" y="798" type="line"/>
      <point x="268" y="798" type="line"/>
      <point x="249" y="796" type="line"/>
      <point x="232" y="795" type="line"/>
      <point x="215" y="792" type="line"/>
      <point x="199" y="789" type="line"/>
      <point x="184" y="784" type="line"/>
      <point x="170" y="780" type="line"/>
      <point x="157" y="774" type="line"/>
      <point x="144" y="768" type="line"/>
      <point x="132" y="761" type="line"/>
      <point x="124" y="756" type="line" smooth="yes"/>
      <point x="123" y="755"/>
      <point x="122" y="755"/>
      <point x="122" y="754" type="curve" smooth="yes"/>
      <point x="112" y="746" type="line"/>
      <point x="103" y="738" type="line"/>
      <point x="94" y="729" type="line"/>
      <point x="89" y="722" type="line" smooth="yes"/>
      <point x="88" y="721"/>
      <point x="87" y="720"/>
      <point x="87" y="720" type="curve" smooth="yes"/>
      <point x="80" y="710" type="line"/>
      <point x="75" y="700" type="line"/>
      <point x="70" y="691" type="line"/>
      <point x="66" y="681" type="line"/>
      <point x="62" y="671" type="line"/>
      <point x="59" y="661" type="line"/>
      <point x="57" y="652" type="line"/>
      <point x="55" y="642" type="line"/>
      <point x="53" y="633" type="line"/>
      <point x="52" y="624" type="line"/>
      <point x="51" y="615" type="line"/>
      <point x="50" y="606" type="line"/>
      <point x="50" y="598" type="line"/>
      <point x="50" y="590" type="line"/>
      <point x="50" y="582" type="line"/>
      <point x="50" y="575" type="line"/>
      <point x="50" y="568" type="line"/>
      <point x="50" y="562" type="line"/>
      <point x="50" y="168" type="line"/>
      <point x="50" y="158" type="line"/>
      <point x="50" y="151" type="line"/>
      <point x="50" y="144" type="line"/>
      <point x="50" y="136" type="line"/>
      <point x="50" y="128" type="line"/>
      <point x="51" y="120" type="line"/>
      <point x="51" y="111" type="line"/>
      <point x="52" y="102" type="line"/>
      <point x="53" y="93" type="line"/>
      <point x="55" y="83" type="line"/>
      <point x="57" y="74" type="line"/>
      <point x="59" y="64" type="line"/>
      <point x="62" y="54" type="line"/>
      <point x="65" y="44" type="line"/>
      <point x="69" y="34" type="line"/>
      <point x="74" y="24" type="line"/>
      <point x="79" y="14" type="line"/>
      <point x="85" y="4" type="line"/>
      <point x="92" y="-5" type="line"/>
      <point x="100" y="-14" type="line"/>
      <point x="108" y="-23" type="line"/>
      <point x="117" y="-31" type="line"/>
      <point x="125" y="-37" type="line" smooth="yes"/>
      <point x="126" y="-38"/>
      <point x="127" y="-39"/>
      <point x="128" y="-39" type="curve" smooth="yes"/>
      <point x="138" y="-46" type="line"/>
      <point x="150" y="-53" type="line"/>
      <point x="163" y="-59" type="line"/>
      <point x="176" y="-64" type="line"/>
      <point x="190" y="-69" type="line"/>
      <point x="205" y="-73" type="line"/>
      <point x="221" y="-76" type="line"/>
      <point x="238" y="-79" type="line"/>
      <point x="255" y="-81" type="line"/>
      <point x="273" y="-82" type="line"/>
    </contour>
    <contour>
      <point x="445" y="202" type="line"/>
      <point x="433" y="205" type="line"/>
      <point x="423" y="209" type="line"/>
      <point x="412" y="213" type="line"/>
      <point x="404" y="217" type="line"/>
      <point x="394" y="223" type="line"/>
      <point x="388" y="228" type="line"/>
      <point x="380" y="235" type="line"/>
      <point x="374" y="241" type="line"/>
      <point x="368" y="248" type="line"/>
      <point x="363" y="255" type="line"/>
      <point x="358" y="262" type="line"/>
      <point x="353" y="269" type="line"/>
      <point x="350" y="277" type="line"/>
      <point x="346" y="284" type="line"/>
      <point x="343" y="292" type="line"/>
      <point x="340" y="299" type="line"/>
      <point x="338" y="307" type="line"/>
      <point x="336" y="314" type="line"/>
      <point x="335" y="321" type="line"/>
      <point x="333" y="327" type="line"/>
      <point x="332" y="334" type="line"/>
      <point x="331" y="339" type="line"/>
      <point x="331" y="344" type="line"/>
      <point x="330" y="353" type="line"/>
      <point x="330" y="359" type="line"/>
      <point x="330" y="375" type="line"/>
      <point x="331" y="390" type="line"/>
      <point x="333" y="404" type="line"/>
      <point x="335" y="417" type="line"/>
      <point x="337" y="428" type="line"/>
      <point x="340" y="439" type="line"/>
      <point x="344" y="448" type="line"/>
      <point x="347" y="457" type="line"/>
      <point x="351" y="464" type="line"/>
      <point x="355" y="471" type="line"/>
      <point x="359" y="477" type="line"/>
      <point x="364" y="483" type="line"/>
      <point x="368" y="487" type="line"/>
      <point x="371" y="490" type="line"/>
      <point x="378" y="495" type="line"/>
      <point x="383" y="499" type="line"/>
      <point x="388" y="502" type="line"/>
      <point x="393" y="504" type="line"/>
      <point x="399" y="507" type="line"/>
      <point x="405" y="509" type="line"/>
      <point x="411" y="511" type="line"/>
      <point x="417" y="512" type="line"/>
      <point x="423" y="514" type="line"/>
      <point x="430" y="515" type="line"/>
      <point x="436" y="516" type="line"/>
      <point x="443" y="517" type="line"/>
      <point x="450" y="517" type="line"/>
      <point x="450" y="517" type="line"/>
      <point x="450" y="202" type="line"/>
    </contour>
  </outline>
</glyph>
<glyph name="A" format="1">
  <advance width="780"/>
  <unicode hex="0041"/>
  <outline>
    <contour>
      <point x="690" y="-44" type="curve" smooth="yes"/>
      <point x="712" y="-44"/>
      <point x="730" y="-26"/>
      <point x="730" y="-4" type="curve" smooth="yes"/>
      <point x="730" y="588" type="line"/>
      <point x="730" y="595" type="line"/>
      <point x="730" y="602" type="line"/>
      <point x="730" y="609" type="line"/>
      <point x="730" y="617" type="line"/>
      <point x="730" y="625" type="line"/>
      <point x="730" y="633" type="line"/>
      <point x="729" y="642" type="line"/>
      <point x="729" y="651" type="line"/>
      <point x="728" y="660" type="line"/>
      <point x="726" y="670" type="line"/>
      <point x="725" y="679" type="line"/>
      <point x="722" y="689" type="line"/>
      <point x="720" y="699" type="line"/>
      <point x="717" y="709" type="line"/>
      <point x="713" y="719" type="line"/>
      <point x="708" y="729" type="line"/>
      <point x="703" y="739" type="line"/>
      <point x="697" y="749" type="line"/>
      <point x="690" y="758" type="line"/>
      <point x="683" y="768" type="line"/>
      <point x="677" y="774" type="line" smooth="yes"/>
      <point x="676" y="775"/>
      <point x="675" y="776"/>
      <point x="674" y="776" type="curve" smooth="yes"/>
      <point x="665" y="785" type="line"/>
      <point x="655" y="793" type="line"/>
      <point x="644" y="800" type="line"/>
      <point x="633" y="807" type="line"/>
      <point x="620" y="813" type="line"/>
      <point x="607" y="818" type="line"/>
      <point x="593" y="823" type="line"/>
      <point x="578" y="827" type="line"/>
      <point x="562" y="830" type="line"/>
      <point x="545" y="833" type="line"/>
      <point x="528" y="835" type="line"/>
      <point x="510" y="836" type="line"/>
      <point x="492" y="836" type="line" smooth="yes"/>
      <point x="492" y="836"/>
      <point x="491" y="836"/>
      <point x="491" y="836" type="curve" smooth="yes"/>
      <point x="287" y="836" type="line"/>
      <point x="268" y="836" type="line"/>
      <point x="249" y="834" type="line"/>
      <point x="232" y="833" type="line"/>
      <point x="215" y="830" type="line"/>
      <point x="199" y="827" type="line"/>
      <point x="184" y="822" type="line"/>
      <point x="170" y="818" type="line"/>
      <point x="157" y="812" type="line"/>
      <point x="144" y="806" type="line"/>
      <point x="132" y="799" type="line"/>
      <point x="124" y="794" type="line" smooth="yes"/>
      <point x="123" y="793"/>
      <point x="122" y="793"/>
      <point x="122" y="792" type="curve" smooth="yes"/>
      <point x="112" y="784" type="line"/>
      <point x="103" y="776" type="line"/>
      <point x="94" y="767" type="line"/>
      <point x="89" y="760" type="line" smooth="yes"/>
      <point x="88" y="759"/>
      <point x="87" y="758"/>
      <point x="87" y="758" type="curve" smooth="yes"/>
      <point x="80" y="748" type="line"/>
      <point x="75" y="738" type="line"/>
      <point x="70" y="729" type="line"/>
      <point x="66" y="719" type="line"/>
      <point x="62" y="709" type="line"/>
      <point x="59" y="699" type="line"/>
      <point x="57" y="690" type="line"/>
      <point x="55" y="680" type="line"/>
      <point x="53" y="671" type="line"/>
      <point x="52" y="662" type="line"/>
      <point x="51" y="653" type="line"/>
      <point x="50" y="644" type="line"/>
      <point x="50" y="636" type="line"/>
      <point x="50" y="628" type="line"/>
      <point x="50" y="620" type="line"/>
      <point x="50" y="613" type="line"/>
      <point x="50" y="606" type="line"/>
      <point x="50" y="600" type="line"/>
      <point x="50" y="26" type="line"/>
      <point x="50" y="14" type="line"/>
      <point x="51" y="4" type="line" smooth="yes"/>
      <point x="53" y="-47"/>
      <point x="128" y="-47"/>
      <point x="130" y="4" type="curve" smooth="yes"/>
      <point x="136" y="138" type="line"/>
      <point x="137" y="149" type="line"/>
      <point x="137" y="155" type="line"/>
      <point x="137" y="162" type="line"/>
      <point x="138" y="170" type="line"/>
      <point x="138" y="177" type="line"/>
      <point x="138" y="184" type="line"/>
      <point x="139" y="191" type="line"/>
      <point x="139" y="198" type="line"/>
      <point x="140" y="205" type="line"/>
      <point x="141" y="211" type="line"/>
      <point x="142" y="218" type="line"/>
      <point x="143" y="224" type="line"/>
      <point x="144" y="231" type="line"/>
      <point x="146" y="237" type="line"/>
      <point x="148" y="242" type="line"/>
      <point x="150" y="248" type="line"/>
      <point x="153" y="253" type="line"/>
      <point x="156" y="258" type="line"/>
      <point x="159" y="263" type="line"/>
      <point x="164" y="269" type="line"/>
      <point x="169" y="273" type="line"/>
      <point x="172" y="276" type="line"/>
      <point x="179" y="282" type="line"/>
      <point x="184" y="284" type="line"/>
      <point x="191" y="288" type="line"/>
      <point x="199" y="292" type="line"/>
      <point x="208" y="295" type="line"/>
      <point x="219" y="298" type="line"/>
      <point x="230" y="301" type="line"/>
      <point x="243" y="303" type="line"/>
      <point x="257" y="305" type="line"/>
      <point x="272" y="306" type="line"/>
      <point x="290" y="306" type="line"/>
      <point x="650" y="306" type="line"/>
      <point x="650" y="-4" type="line" smooth="yes"/>
      <point x="650" y="-26"/>
      <point x="668" y="-44"/>
    </contour>
    <contour>
      <point x="133" y="347" type="curve" smooth="yes"/>
      <point x="130" y="345" type="line"/>
      <point x="130" y="600" type="line"/>
      <point x="130" y="607" type="line"/>
      <point x="130" y="614" type="line"/>
      <point x="130" y="620" type="line"/>
      <point x="130" y="627" type="line"/>
      <point x="130" y="634" type="line"/>
      <point x="130" y="640" type="line"/>
      <point x="131" y="647" type="line"/>
      <point x="132" y="654" type="line"/>
      <point x="132" y="660" type="line"/>
      <point x="134" y="667" type="line"/>
      <point x="135" y="673" type="line"/>
      <point x="137" y="679" type="line"/>
      <point x="138" y="685" type="line"/>
      <point x="141" y="691" type="line"/>
      <point x="143" y="697" type="line"/>
      <point x="146" y="702" type="line"/>
      <point x="149" y="707" type="line"/>
      <point x="151" y="710" type="line"/>
      <point x="156" y="716" type="line"/>
      <point x="161" y="721" type="line"/>
      <point x="166" y="725" type="line"/>
      <point x="169" y="728" type="line"/>
      <point x="177" y="733" type="line"/>
      <point x="184" y="737" type="line"/>
      <point x="191" y="740" type="line"/>
      <point x="200" y="744" type="line"/>
      <point x="209" y="747" type="line"/>
      <point x="220" y="749" type="line"/>
      <point x="231" y="752" type="line"/>
      <point x="244" y="753" type="line"/>
      <point x="258" y="755" type="line"/>
      <point x="273" y="756" type="line"/>
      <point x="289" y="756" type="line"/>
      <point x="491" y="756" type="line"/>
      <point x="508" y="756" type="line"/>
      <point x="523" y="755" type="line"/>
      <point x="537" y="753" type="line"/>
      <point x="550" y="751" type="line"/>
      <point x="561" y="749" type="line"/>
      <point x="572" y="746" type="line"/>
      <point x="581" y="742" type="line"/>
      <point x="590" y="739" type="line"/>
      <point x="597" y="735" type="line"/>
      <point x="604" y="731" type="line"/>
      <point x="610" y="727" type="line"/>
      <point x="615" y="722" type="line"/>
      <point x="619" y="719" type="line"/>
      <point x="624" y="713" type="line"/>
      <point x="628" y="708" type="line"/>
      <point x="631" y="703" type="line"/>
      <point x="634" y="698" type="line"/>
      <point x="637" y="693" type="line"/>
      <point x="640" y="687" type="line"/>
      <point x="642" y="681" type="line"/>
      <point x="643" y="675" type="line"/>
      <point x="645" y="669" type="line"/>
      <point x="646" y="662" type="line"/>
      <point x="647" y="656" type="line"/>
      <point x="648" y="649" type="line"/>
      <point x="649" y="643" type="line"/>
      <point x="650" y="636" type="line"/>
      <point x="650" y="629" type="line"/>
      <point x="650" y="623" type="line"/>
      <point x="650" y="616" type="line"/>
      <point x="650" y="609" type="line"/>
      <point x="650" y="603" type="line"/>
      <point x="650" y="597" type="line"/>
      <point x="650" y="588" type="line"/>
      <point x="650" y="386" type="line"/>
      <point x="290" y="386" type="line"/>
      <point x="271" y="386" type="line"/>
      <point x="252" y="384" type="line"/>
      <point x="234" y="383" type="line"/>
      <point x="217" y="380" type="line"/>
      <point x="202" y="376" type="line"/>
      <point x="187" y="372" type="line"/>
      <point x="172" y="367" type="line"/>
      <point x="159" y="362" type="line"/>
      <point x="147" y="355" type="line"/>
      <point x="135" y="348" type="line" smooth="yes"/>
      <point x="134" y="348"/>
      <point x="133" y="347"/>
    </contour>
  </outline>
</glyph>
